<mxfile host="app.diagrams.net" modified="2024-04-30T02:56:13.537Z" agent="Mozilla/5.0 (Windows NT 10.0; Win64; x64) AppleWebKit/537.36 (KHTML, like Gecko) Chrome/124.0.0.0 Safari/537.36" etag="RgdqZab5YhIB2KlBzYB0" version="24.3.1" type="github" pages="19">
  <diagram id="oRNN-zSzG9cJebJDm6hJ" name="arrow">
    <mxGraphModel dx="1674" dy="4291" grid="1" gridSize="10" guides="1" tooltips="1" connect="1" arrows="1" fold="1" page="1" pageScale="1" pageWidth="827" pageHeight="1169" math="0" shadow="0">
      <root>
        <mxCell id="0" />
        <mxCell id="1" parent="0" />
        <mxCell id="EtvrNQNIiaBIp_oZrtTh-1" value="状態：素人" style="swimlane;whiteSpace=wrap;html=1;" parent="1" vertex="1">
          <mxGeometry x="410" y="110" width="330" height="280" as="geometry" />
        </mxCell>
        <mxCell id="EtvrNQNIiaBIp_oZrtTh-2" value="Docker" style="rounded=1;fillColor=#10739E;strokeColor=none;shadow=0;gradientColor=none;fontStyle=1;fontColor=#FFFFFF;fontSize=14;" parent="EtvrNQNIiaBIp_oZrtTh-1" vertex="1">
          <mxGeometry x="9.999999999999886" y="40" width="69.68" height="70" as="geometry" />
        </mxCell>
        <mxCell id="EtvrNQNIiaBIp_oZrtTh-3" value="Vim" style="rounded=1;fillColor=#019e95;strokeColor=none;shadow=0;gradientColor=none;fontStyle=1;fontColor=#FFFFFF;fontSize=14;" parent="EtvrNQNIiaBIp_oZrtTh-1" vertex="1">
          <mxGeometry x="120.00000000000001" y="60" width="69.79" height="70" as="geometry" />
        </mxCell>
        <mxCell id="EtvrNQNIiaBIp_oZrtTh-4" value="Haskell" style="rounded=1;fillColor=#66B2FF;strokeColor=none;shadow=0;gradientColor=none;fontStyle=1;fontColor=#FFFFFF;fontSize=14;" parent="EtvrNQNIiaBIp_oZrtTh-1" vertex="1">
          <mxGeometry x="31.360000000000014" y="150" width="68.75" height="70" as="geometry" />
        </mxCell>
        <mxCell id="EtvrNQNIiaBIp_oZrtTh-5" value="Agile" style="rounded=1;fillColor=#109e81;strokeColor=none;shadow=0;gradientColor=none;fontStyle=1;fontColor=#FFFFFF;fontSize=14;" parent="EtvrNQNIiaBIp_oZrtTh-1" vertex="1">
          <mxGeometry x="150" y="160" width="71.72" height="70" as="geometry" />
        </mxCell>
        <mxCell id="EtvrNQNIiaBIp_oZrtTh-6" value="UIUX" style="rounded=1;fillColor=#6666FF;strokeColor=#6666FF;shadow=0;gradientColor=none;fontStyle=1;fontColor=#FFFFFF;fontSize=14;" parent="EtvrNQNIiaBIp_oZrtTh-1" vertex="1">
          <mxGeometry x="240" y="170" width="69.79" height="70" as="geometry" />
        </mxCell>
        <mxCell id="EtvrNQNIiaBIp_oZrtTh-7" value="ラポール&#xa;形成" style="rounded=1;fillColor=#6666FF;strokeColor=#6666FF;shadow=0;gradientColor=none;fontStyle=1;fontColor=#FFFFFF;fontSize=14;" parent="EtvrNQNIiaBIp_oZrtTh-1" vertex="1">
          <mxGeometry x="230" y="60" width="68.75" height="70" as="geometry" />
        </mxCell>
        <mxCell id="EtvrNQNIiaBIp_oZrtTh-9" value="状態：素人" style="swimlane;whiteSpace=wrap;html=1;" parent="1" vertex="1">
          <mxGeometry x="40" y="110" width="330" height="280" as="geometry" />
        </mxCell>
        <mxCell id="EtvrNQNIiaBIp_oZrtTh-10" value="Docker" style="rounded=1;fillColor=#10739E;strokeColor=none;shadow=0;gradientColor=none;fontStyle=1;fontColor=#FFFFFF;fontSize=14;" parent="EtvrNQNIiaBIp_oZrtTh-9" vertex="1">
          <mxGeometry x="79.99999999999989" y="160" width="69.68" height="70" as="geometry" />
        </mxCell>
        <mxCell id="EtvrNQNIiaBIp_oZrtTh-13" value="圏" style="swimlane;whiteSpace=wrap;html=1;" parent="EtvrNQNIiaBIp_oZrtTh-9" vertex="1">
          <mxGeometry x="199.79" y="40" width="105" height="110" as="geometry" />
        </mxCell>
        <mxCell id="EtvrNQNIiaBIp_oZrtTh-14" value="ラポール&#xa;形成" style="rounded=1;fillColor=#6666FF;strokeColor=#6666FF;shadow=0;gradientColor=none;fontStyle=1;fontColor=#FFFFFF;fontSize=14;" parent="EtvrNQNIiaBIp_oZrtTh-13" vertex="1">
          <mxGeometry x="18.120000000000108" y="30" width="68.75" height="70" as="geometry" />
        </mxCell>
        <mxCell id="EtvrNQNIiaBIp_oZrtTh-15" value="圏" style="swimlane;whiteSpace=wrap;html=1;" parent="EtvrNQNIiaBIp_oZrtTh-9" vertex="1">
          <mxGeometry x="30" y="40" width="105" height="110" as="geometry" />
        </mxCell>
        <mxCell id="EtvrNQNIiaBIp_oZrtTh-16" value="Vim" style="rounded=1;fillColor=#019e95;strokeColor=none;shadow=0;gradientColor=none;fontStyle=1;fontColor=#FFFFFF;fontSize=14;" parent="EtvrNQNIiaBIp_oZrtTh-15" vertex="1">
          <mxGeometry x="17.080000000000013" y="30" width="69.79" height="70" as="geometry" />
        </mxCell>
        <mxCell id="EtvrNQNIiaBIp_oZrtTh-17" value="UIUX" style="rounded=1;fillColor=#6666FF;strokeColor=#6666FF;shadow=0;gradientColor=none;fontStyle=1;fontColor=#FFFFFF;fontSize=14;" parent="EtvrNQNIiaBIp_oZrtTh-9" vertex="1">
          <mxGeometry x="235.00000000000006" y="200" width="69.79" height="70" as="geometry" />
        </mxCell>
        <mxCell id="EtvrNQNIiaBIp_oZrtTh-11" value="圏論" style="rounded=1;fillColor=#66B2FF;strokeColor=none;shadow=0;gradientColor=none;fontStyle=1;fontColor=#FFFFFF;fontSize=14;" parent="EtvrNQNIiaBIp_oZrtTh-9" vertex="1">
          <mxGeometry x="180" y="160" width="68.75" height="70" as="geometry" />
        </mxCell>
        <mxCell id="EtvrNQNIiaBIp_oZrtTh-12" value="Agile" style="rounded=1;fillColor=#109e81;strokeColor=none;shadow=0;gradientColor=none;fontStyle=1;fontColor=#FFFFFF;fontSize=14;" parent="EtvrNQNIiaBIp_oZrtTh-9" vertex="1">
          <mxGeometry y="200" width="71.72" height="70" as="geometry" />
        </mxCell>
        <mxCell id="EtvrNQNIiaBIp_oZrtTh-19" value="状態：圏論" style="swimlane;whiteSpace=wrap;html=1;" parent="1" vertex="1">
          <mxGeometry x="40" y="-260" width="320" height="280" as="geometry" />
        </mxCell>
        <mxCell id="EtvrNQNIiaBIp_oZrtTh-20" value="射" style="swimlane;whiteSpace=wrap;html=1;" parent="EtvrNQNIiaBIp_oZrtTh-19" vertex="1">
          <mxGeometry x="200" y="160" width="105" height="110" as="geometry" />
        </mxCell>
        <mxCell id="EtvrNQNIiaBIp_oZrtTh-21" value="" style="endArrow=classic;html=1;rounded=0;fillColor=#6666FF;shape=flexArrow;width=3;endSize=7.17;endWidth=6;strokeColor=none;" parent="EtvrNQNIiaBIp_oZrtTh-20" edge="1">
          <mxGeometry relative="1" as="geometry">
            <mxPoint x="2.5" y="64.5" as="sourcePoint" />
            <mxPoint x="102.5" y="64.5" as="targetPoint" />
          </mxGeometry>
        </mxCell>
        <mxCell id="EtvrNQNIiaBIp_oZrtTh-22" value="ラポール形成" style="edgeLabel;resizable=0;html=1;align=center;verticalAlign=middle;" parent="EtvrNQNIiaBIp_oZrtTh-21" connectable="0" vertex="1">
          <mxGeometry relative="1" as="geometry" />
        </mxCell>
        <mxCell id="EtvrNQNIiaBIp_oZrtTh-23" value="射" style="swimlane;whiteSpace=wrap;html=1;" parent="EtvrNQNIiaBIp_oZrtTh-19" vertex="1">
          <mxGeometry x="30" y="160" width="105" height="110" as="geometry" />
        </mxCell>
        <mxCell id="EtvrNQNIiaBIp_oZrtTh-24" value="" style="endArrow=classic;html=1;rounded=0;fillColor=#019e95;shape=flexArrow;width=3;endSize=7.17;endWidth=6;strokeColor=none;" parent="EtvrNQNIiaBIp_oZrtTh-23" edge="1">
          <mxGeometry relative="1" as="geometry">
            <mxPoint x="2.5" y="64.5" as="sourcePoint" />
            <mxPoint x="102.5" y="64.5" as="targetPoint" />
          </mxGeometry>
        </mxCell>
        <mxCell id="EtvrNQNIiaBIp_oZrtTh-25" value="Vim" style="edgeLabel;resizable=0;html=1;align=center;verticalAlign=middle;" parent="EtvrNQNIiaBIp_oZrtTh-24" connectable="0" vertex="1">
          <mxGeometry relative="1" as="geometry" />
        </mxCell>
        <mxCell id="EtvrNQNIiaBIp_oZrtTh-28" value="射" style="swimlane;whiteSpace=wrap;html=1;" parent="EtvrNQNIiaBIp_oZrtTh-19" vertex="1">
          <mxGeometry x="29.99999999999997" y="40" width="105" height="110" as="geometry" />
        </mxCell>
        <mxCell id="EtvrNQNIiaBIp_oZrtTh-29" value="" style="endArrow=classic;html=1;rounded=0;fillColor=#109E81;shape=flexArrow;width=3;endSize=7.17;endWidth=6;strokeColor=none;" parent="EtvrNQNIiaBIp_oZrtTh-28" edge="1">
          <mxGeometry relative="1" as="geometry">
            <mxPoint x="2.5" y="64.5" as="sourcePoint" />
            <mxPoint x="102.5" y="64.5" as="targetPoint" />
          </mxGeometry>
        </mxCell>
        <mxCell id="EtvrNQNIiaBIp_oZrtTh-30" value="Agile" style="edgeLabel;resizable=0;html=1;align=center;verticalAlign=middle;" parent="EtvrNQNIiaBIp_oZrtTh-29" connectable="0" vertex="1">
          <mxGeometry relative="1" as="geometry" />
        </mxCell>
        <mxCell id="EtvrNQNIiaBIp_oZrtTh-26" value="" style="endArrow=classic;html=1;rounded=0;fillColor=#66B2FF;shape=flexArrow;width=3;endSize=7.17;endWidth=6;strokeColor=none;exitX=1;exitY=0.5;exitDx=0;exitDy=0;entryX=0;entryY=0.5;entryDx=0;entryDy=0;" parent="EtvrNQNIiaBIp_oZrtTh-19" edge="1">
          <mxGeometry relative="1" as="geometry">
            <mxPoint x="170" y="94.5" as="sourcePoint" />
            <mxPoint x="280" y="94.5" as="targetPoint" />
          </mxGeometry>
        </mxCell>
        <mxCell id="EtvrNQNIiaBIp_oZrtTh-27" value="圏論" style="edgeLabel;resizable=0;html=1;align=center;verticalAlign=middle;" parent="EtvrNQNIiaBIp_oZrtTh-26" connectable="0" vertex="1">
          <mxGeometry relative="1" as="geometry" />
        </mxCell>
        <mxCell id="EtvrNQNIiaBIp_oZrtTh-31" value="" style="endArrow=classic;html=1;rounded=0;fillColor=#66B2FF;shape=flexArrow;width=3;endSize=7.17;endWidth=6;strokeColor=none;exitX=0.5;exitY=0;exitDx=0;exitDy=0;" parent="1" source="EtvrNQNIiaBIp_oZrtTh-13" edge="1">
          <mxGeometry relative="1" as="geometry">
            <mxPoint x="293" y="150" as="sourcePoint" />
            <mxPoint x="293" y="10" as="targetPoint" />
          </mxGeometry>
        </mxCell>
        <mxCell id="EtvrNQNIiaBIp_oZrtTh-32" value="関手" style="edgeLabel;resizable=0;html=1;align=center;verticalAlign=middle;" parent="EtvrNQNIiaBIp_oZrtTh-31" connectable="0" vertex="1">
          <mxGeometry relative="1" as="geometry" />
        </mxCell>
        <mxCell id="EtvrNQNIiaBIp_oZrtTh-33" value="" style="endArrow=classic;html=1;rounded=0;fillColor=#66B2FF;shape=flexArrow;width=3;endSize=7.17;endWidth=6;strokeColor=none;exitX=0.5;exitY=0;exitDx=0;exitDy=0;" parent="1" source="EtvrNQNIiaBIp_oZrtTh-15" target="EtvrNQNIiaBIp_oZrtTh-23" edge="1">
          <mxGeometry relative="1" as="geometry">
            <mxPoint x="740" y="54.47000000000003" as="sourcePoint" />
            <mxPoint x="830" y="50" as="targetPoint" />
          </mxGeometry>
        </mxCell>
        <mxCell id="EtvrNQNIiaBIp_oZrtTh-34" value="関手" style="edgeLabel;resizable=0;html=1;align=center;verticalAlign=middle;" parent="EtvrNQNIiaBIp_oZrtTh-33" connectable="0" vertex="1">
          <mxGeometry relative="1" as="geometry" />
        </mxCell>
        <mxCell id="EtvrNQNIiaBIp_oZrtTh-35" value="状態：圏論による独自理論の構築" style="swimlane;whiteSpace=wrap;html=1;" parent="1" vertex="1">
          <mxGeometry x="40" y="-560" width="590" height="280" as="geometry" />
        </mxCell>
        <mxCell id="EtvrNQNIiaBIp_oZrtTh-36" value="" style="endArrow=classic;html=1;rounded=0;fillColor=#66B2FF;shape=flexArrow;width=3;endSize=7.17;endWidth=6;strokeColor=none;exitX=1;exitY=0.5;exitDx=0;exitDy=0;entryX=0;entryY=0.5;entryDx=0;entryDy=0;" parent="EtvrNQNIiaBIp_oZrtTh-35" source="EtvrNQNIiaBIp_oZrtTh-43" target="EtvrNQNIiaBIp_oZrtTh-44" edge="1">
          <mxGeometry relative="1" as="geometry">
            <mxPoint x="67.99999999998772" y="159.57999999999976" as="sourcePoint" />
            <mxPoint x="130" y="160" as="targetPoint" />
          </mxGeometry>
        </mxCell>
        <mxCell id="EtvrNQNIiaBIp_oZrtTh-37" value="圏論" style="edgeLabel;resizable=0;html=1;align=center;verticalAlign=middle;" parent="EtvrNQNIiaBIp_oZrtTh-36" connectable="0" vertex="1">
          <mxGeometry relative="1" as="geometry" />
        </mxCell>
        <mxCell id="EtvrNQNIiaBIp_oZrtTh-38" value="" style="endArrow=classic;html=1;rounded=0;fillColor=#019e95;shape=flexArrow;width=3;endSize=7.17;endWidth=6;strokeColor=none;exitX=1;exitY=0.5;exitDx=0;exitDy=0;" parent="EtvrNQNIiaBIp_oZrtTh-35" edge="1">
          <mxGeometry relative="1" as="geometry">
            <mxPoint x="61.99999999994952" y="80" as="sourcePoint" />
            <mxPoint x="120" y="80" as="targetPoint" />
          </mxGeometry>
        </mxCell>
        <mxCell id="EtvrNQNIiaBIp_oZrtTh-39" value="Vim" style="edgeLabel;resizable=0;html=1;align=center;verticalAlign=middle;" parent="EtvrNQNIiaBIp_oZrtTh-38" connectable="0" vertex="1">
          <mxGeometry relative="1" as="geometry" />
        </mxCell>
        <mxCell id="EtvrNQNIiaBIp_oZrtTh-40" value="" style="endArrow=classic;html=1;rounded=0;fillColor=#6666FF;shape=flexArrow;width=3;endSize=7.17;endWidth=6;strokeColor=none;" parent="EtvrNQNIiaBIp_oZrtTh-35" edge="1">
          <mxGeometry relative="1" as="geometry">
            <mxPoint x="120" y="80" as="sourcePoint" />
            <mxPoint x="220" y="80" as="targetPoint" />
          </mxGeometry>
        </mxCell>
        <mxCell id="EtvrNQNIiaBIp_oZrtTh-41" value="ラポール形成" style="edgeLabel;resizable=0;html=1;align=center;verticalAlign=middle;" parent="EtvrNQNIiaBIp_oZrtTh-40" connectable="0" vertex="1">
          <mxGeometry relative="1" as="geometry" />
        </mxCell>
        <mxCell id="EtvrNQNIiaBIp_oZrtTh-42" value="&lt;font style=&quot;font-size: 14px;&quot;&gt;何もない&lt;br&gt;&lt;/font&gt;" style="text;html=1;strokeColor=none;fillColor=none;align=center;verticalAlign=middle;whiteSpace=wrap;rounded=0;" parent="EtvrNQNIiaBIp_oZrtTh-35" vertex="1">
          <mxGeometry x="10" y="60" width="40" height="40" as="geometry" />
        </mxCell>
        <mxCell id="EtvrNQNIiaBIp_oZrtTh-43" value="&lt;font style=&quot;&quot;&gt;&lt;font style=&quot;font-size: 12px;&quot;&gt;カオス&lt;/font&gt;&lt;br&gt;&lt;/font&gt;" style="text;html=1;strokeColor=none;fillColor=none;align=center;verticalAlign=middle;whiteSpace=wrap;rounded=0;" parent="EtvrNQNIiaBIp_oZrtTh-35" vertex="1">
          <mxGeometry x="10" y="140" width="40" height="40" as="geometry" />
        </mxCell>
        <mxCell id="EtvrNQNIiaBIp_oZrtTh-44" value="プロジェクト計画の確立" style="swimlane;whiteSpace=wrap;html=1;" parent="EtvrNQNIiaBIp_oZrtTh-35" vertex="1">
          <mxGeometry x="130" y="110" width="440" height="100" as="geometry" />
        </mxCell>
        <mxCell id="EtvrNQNIiaBIp_oZrtTh-45" value="" style="endArrow=classic;html=1;rounded=0;fillColor=#6666FF;shape=flexArrow;width=3;endSize=7.17;endWidth=6;strokeColor=none;" parent="EtvrNQNIiaBIp_oZrtTh-44" edge="1">
          <mxGeometry relative="1" as="geometry">
            <mxPoint x="60" y="60" as="sourcePoint" />
            <mxPoint x="160" y="60" as="targetPoint" />
          </mxGeometry>
        </mxCell>
        <mxCell id="EtvrNQNIiaBIp_oZrtTh-46" value="ラポール形成" style="edgeLabel;resizable=0;html=1;align=center;verticalAlign=middle;" parent="EtvrNQNIiaBIp_oZrtTh-45" connectable="0" vertex="1">
          <mxGeometry relative="1" as="geometry" />
        </mxCell>
        <mxCell id="EtvrNQNIiaBIp_oZrtTh-47" value="" style="endArrow=classic;html=1;rounded=0;fillColor=#109E81;shape=flexArrow;width=3;endSize=7.17;endWidth=6;strokeColor=none;" parent="EtvrNQNIiaBIp_oZrtTh-44" edge="1">
          <mxGeometry relative="1" as="geometry">
            <mxPoint x="160" y="60" as="sourcePoint" />
            <mxPoint x="260" y="60" as="targetPoint" />
          </mxGeometry>
        </mxCell>
        <mxCell id="EtvrNQNIiaBIp_oZrtTh-48" value="Agile" style="edgeLabel;resizable=0;html=1;align=center;verticalAlign=middle;" parent="EtvrNQNIiaBIp_oZrtTh-47" connectable="0" vertex="1">
          <mxGeometry relative="1" as="geometry" />
        </mxCell>
        <mxCell id="EtvrNQNIiaBIp_oZrtTh-49" value="&lt;font style=&quot;&quot;&gt;&lt;font style=&quot;font-size: 12px;&quot;&gt;要件&lt;br&gt;&lt;/font&gt;整理&lt;br&gt;&lt;/font&gt;" style="text;html=1;strokeColor=none;fillColor=none;align=center;verticalAlign=middle;whiteSpace=wrap;rounded=0;" parent="EtvrNQNIiaBIp_oZrtTh-44" vertex="1">
          <mxGeometry x="260" y="40" width="40" height="40" as="geometry" />
        </mxCell>
        <mxCell id="4WUHIGS_B5dh8i_6RRQe-1" value="状態：圏論からのスキル化" style="swimlane;whiteSpace=wrap;html=1;" parent="1" vertex="1">
          <mxGeometry x="40" y="-880" width="590" height="280" as="geometry" />
        </mxCell>
        <mxCell id="4WUHIGS_B5dh8i_6RRQe-2" value="" style="endArrow=classic;html=1;rounded=0;fillColor=#66B2FF;shape=flexArrow;width=3;endSize=7.17;endWidth=6;strokeColor=none;exitX=1;exitY=0.5;exitDx=0;exitDy=0;entryX=0;entryY=0.5;entryDx=0;entryDy=0;" parent="4WUHIGS_B5dh8i_6RRQe-1" source="4WUHIGS_B5dh8i_6RRQe-9" target="4WUHIGS_B5dh8i_6RRQe-10" edge="1">
          <mxGeometry relative="1" as="geometry">
            <mxPoint x="67.99999999998772" y="159.57999999999976" as="sourcePoint" />
            <mxPoint x="130" y="160" as="targetPoint" />
          </mxGeometry>
        </mxCell>
        <mxCell id="4WUHIGS_B5dh8i_6RRQe-3" value="圏論" style="edgeLabel;resizable=0;html=1;align=center;verticalAlign=middle;" parent="4WUHIGS_B5dh8i_6RRQe-2" connectable="0" vertex="1">
          <mxGeometry relative="1" as="geometry" />
        </mxCell>
        <mxCell id="4WUHIGS_B5dh8i_6RRQe-4" value="" style="endArrow=classic;html=1;rounded=0;fillColor=#019e95;shape=flexArrow;width=3;endSize=7.17;endWidth=6;strokeColor=none;exitX=1;exitY=0.5;exitDx=0;exitDy=0;" parent="4WUHIGS_B5dh8i_6RRQe-1" edge="1">
          <mxGeometry relative="1" as="geometry">
            <mxPoint x="61.99999999994952" y="80" as="sourcePoint" />
            <mxPoint x="120" y="80" as="targetPoint" />
          </mxGeometry>
        </mxCell>
        <mxCell id="4WUHIGS_B5dh8i_6RRQe-5" value="Vim" style="edgeLabel;resizable=0;html=1;align=center;verticalAlign=middle;" parent="4WUHIGS_B5dh8i_6RRQe-4" connectable="0" vertex="1">
          <mxGeometry relative="1" as="geometry" />
        </mxCell>
        <mxCell id="4WUHIGS_B5dh8i_6RRQe-6" value="" style="endArrow=classic;html=1;rounded=0;fillColor=#6666FF;shape=flexArrow;width=3;endSize=7.17;endWidth=6;strokeColor=none;" parent="4WUHIGS_B5dh8i_6RRQe-1" edge="1">
          <mxGeometry relative="1" as="geometry">
            <mxPoint x="120" y="80" as="sourcePoint" />
            <mxPoint x="220" y="80" as="targetPoint" />
          </mxGeometry>
        </mxCell>
        <mxCell id="4WUHIGS_B5dh8i_6RRQe-7" value="ラポール形成" style="edgeLabel;resizable=0;html=1;align=center;verticalAlign=middle;" parent="4WUHIGS_B5dh8i_6RRQe-6" connectable="0" vertex="1">
          <mxGeometry relative="1" as="geometry" />
        </mxCell>
        <mxCell id="4WUHIGS_B5dh8i_6RRQe-8" value="&lt;font style=&quot;font-size: 14px;&quot;&gt;何もない&lt;br&gt;&lt;/font&gt;" style="text;html=1;strokeColor=none;fillColor=none;align=center;verticalAlign=middle;whiteSpace=wrap;rounded=0;" parent="4WUHIGS_B5dh8i_6RRQe-1" vertex="1">
          <mxGeometry x="10" y="60" width="40" height="40" as="geometry" />
        </mxCell>
        <mxCell id="4WUHIGS_B5dh8i_6RRQe-9" value="&lt;font style=&quot;&quot;&gt;&lt;font style=&quot;font-size: 12px;&quot;&gt;カオス&lt;/font&gt;&lt;br&gt;&lt;/font&gt;" style="text;html=1;strokeColor=none;fillColor=none;align=center;verticalAlign=middle;whiteSpace=wrap;rounded=0;" parent="4WUHIGS_B5dh8i_6RRQe-1" vertex="1">
          <mxGeometry x="10" y="140" width="40" height="40" as="geometry" />
        </mxCell>
        <mxCell id="4WUHIGS_B5dh8i_6RRQe-10" value="プロジェクト計画の確立" style="swimlane;whiteSpace=wrap;html=1;" parent="4WUHIGS_B5dh8i_6RRQe-1" vertex="1">
          <mxGeometry x="130" y="110" width="440" height="100" as="geometry" />
        </mxCell>
        <mxCell id="4WUHIGS_B5dh8i_6RRQe-11" value="" style="endArrow=classic;html=1;rounded=0;fillColor=#6666FF;shape=flexArrow;width=3;endSize=7.17;endWidth=6;strokeColor=none;" parent="4WUHIGS_B5dh8i_6RRQe-10" edge="1">
          <mxGeometry relative="1" as="geometry">
            <mxPoint x="60" y="60" as="sourcePoint" />
            <mxPoint x="360" y="60" as="targetPoint" />
          </mxGeometry>
        </mxCell>
        <mxCell id="4WUHIGS_B5dh8i_6RRQe-12" value="終了局面を読み切る" style="edgeLabel;resizable=0;html=1;align=center;verticalAlign=middle;" parent="4WUHIGS_B5dh8i_6RRQe-11" connectable="0" vertex="1">
          <mxGeometry relative="1" as="geometry" />
        </mxCell>
        <mxCell id="MkggtV5wi_TIvpfta4GQ-1" value="状態：圏論からのスキル化" style="swimlane;whiteSpace=wrap;html=1;" parent="1" vertex="1">
          <mxGeometry x="40" y="-1200" width="590" height="289.5" as="geometry" />
        </mxCell>
        <mxCell id="MkggtV5wi_TIvpfta4GQ-4" value="" style="endArrow=classic;html=1;rounded=0;fillColor=#019e95;shape=flexArrow;width=3;endSize=7.17;endWidth=6;strokeColor=none;exitX=1;exitY=0.5;exitDx=0;exitDy=0;" parent="MkggtV5wi_TIvpfta4GQ-1" edge="1">
          <mxGeometry relative="1" as="geometry">
            <mxPoint x="61.99999999994952" y="80" as="sourcePoint" />
            <mxPoint x="120" y="80" as="targetPoint" />
          </mxGeometry>
        </mxCell>
        <mxCell id="MkggtV5wi_TIvpfta4GQ-5" value="Vim" style="edgeLabel;resizable=0;html=1;align=center;verticalAlign=middle;" parent="MkggtV5wi_TIvpfta4GQ-4" connectable="0" vertex="1">
          <mxGeometry relative="1" as="geometry" />
        </mxCell>
        <mxCell id="MkggtV5wi_TIvpfta4GQ-6" value="" style="endArrow=classic;html=1;rounded=0;fillColor=#6666FF;shape=flexArrow;width=3;endSize=7.17;endWidth=6;strokeColor=none;" parent="MkggtV5wi_TIvpfta4GQ-1" edge="1">
          <mxGeometry relative="1" as="geometry">
            <mxPoint x="259.68" y="154.5" as="sourcePoint" />
            <mxPoint x="360" y="190" as="targetPoint" />
          </mxGeometry>
        </mxCell>
        <mxCell id="MkggtV5wi_TIvpfta4GQ-7" value="心理術" style="edgeLabel;resizable=0;html=1;align=center;verticalAlign=middle;" parent="MkggtV5wi_TIvpfta4GQ-6" connectable="0" vertex="1">
          <mxGeometry relative="1" as="geometry" />
        </mxCell>
        <mxCell id="MkggtV5wi_TIvpfta4GQ-8" value="&lt;font style=&quot;font-size: 14px;&quot;&gt;何もない&lt;br&gt;&lt;/font&gt;" style="text;html=1;strokeColor=none;fillColor=none;align=center;verticalAlign=middle;whiteSpace=wrap;rounded=0;" parent="MkggtV5wi_TIvpfta4GQ-1" vertex="1">
          <mxGeometry x="10" y="60" width="40" height="40" as="geometry" />
        </mxCell>
        <mxCell id="dy35aeAQ4Ue6G7NFQhnv-1" value="Docker" style="rounded=1;fillColor=#10739E;strokeColor=none;shadow=0;gradientColor=none;fontStyle=1;fontColor=#FFFFFF;fontSize=14;" parent="MkggtV5wi_TIvpfta4GQ-1" vertex="1">
          <mxGeometry x="39.999999999999886" y="120" width="69.68" height="70" as="geometry" />
        </mxCell>
        <mxCell id="dy35aeAQ4Ue6G7NFQhnv-2" value="" style="endArrow=classic;html=1;rounded=0;fillColor=#66B2FF;shape=flexArrow;width=3;endSize=7.17;endWidth=6;strokeColor=none;exitX=1;exitY=0.5;exitDx=0;exitDy=0;entryX=0;entryY=0.5;entryDx=0;entryDy=0;" parent="MkggtV5wi_TIvpfta4GQ-1" source="dy35aeAQ4Ue6G7NFQhnv-1" target="dy35aeAQ4Ue6G7NFQhnv-4" edge="1">
          <mxGeometry relative="1" as="geometry">
            <mxPoint x="109.68" y="154.5" as="sourcePoint" />
            <mxPoint x="189.68" y="154.5" as="targetPoint" />
          </mxGeometry>
        </mxCell>
        <mxCell id="dy35aeAQ4Ue6G7NFQhnv-3" value="圏論" style="edgeLabel;resizable=0;html=1;align=center;verticalAlign=middle;" parent="dy35aeAQ4Ue6G7NFQhnv-2" connectable="0" vertex="1">
          <mxGeometry relative="1" as="geometry" />
        </mxCell>
        <mxCell id="dy35aeAQ4Ue6G7NFQhnv-4" value="観察力の&#xa;基礎" style="rounded=1;fillColor=#10739E;strokeColor=none;shadow=0;gradientColor=none;fontStyle=1;fontColor=#FFFFFF;fontSize=14;" parent="MkggtV5wi_TIvpfta4GQ-1" vertex="1">
          <mxGeometry x="189.9999999999999" y="120" width="69.68" height="70" as="geometry" />
        </mxCell>
        <mxCell id="Grk3ASspi7itF8LlZDWV-1" value="心理学&#xa;DB" style="rounded=1;fillColor=#6666FF;strokeColor=#6666FF;shadow=0;gradientColor=none;fontStyle=1;fontColor=#FFFFFF;fontSize=14;" parent="MkggtV5wi_TIvpfta4GQ-1" vertex="1">
          <mxGeometry x="190.00000000000006" y="200" width="69.79" height="70" as="geometry" />
        </mxCell>
        <mxCell id="Grk3ASspi7itF8LlZDWV-2" value="" style="endArrow=classic;html=1;rounded=0;fillColor=#6666FF;shape=flexArrow;width=3;endSize=7.17;endWidth=6;strokeColor=none;" parent="MkggtV5wi_TIvpfta4GQ-1" edge="1">
          <mxGeometry relative="1" as="geometry">
            <mxPoint x="259.68" y="234.5" as="sourcePoint" />
            <mxPoint x="360" y="200" as="targetPoint" />
          </mxGeometry>
        </mxCell>
        <mxCell id="Grk3ASspi7itF8LlZDWV-3" value="心理術" style="edgeLabel;resizable=0;html=1;align=center;verticalAlign=middle;" parent="Grk3ASspi7itF8LlZDWV-2" connectable="0" vertex="1">
          <mxGeometry relative="1" as="geometry" />
        </mxCell>
        <mxCell id="Grk3ASspi7itF8LlZDWV-4" value="会議領域" style="swimlane;whiteSpace=wrap;html=1;" parent="MkggtV5wi_TIvpfta4GQ-1" vertex="1">
          <mxGeometry x="330" y="130" width="230" height="159.5" as="geometry" />
        </mxCell>
        <mxCell id="Grk3ASspi7itF8LlZDWV-7" value="" style="endArrow=classic;html=1;rounded=0;fillColor=#6666FF;shape=flexArrow;width=3;endSize=7.17;endWidth=6;strokeColor=none;" parent="1" edge="1">
          <mxGeometry relative="1" as="geometry">
            <mxPoint x="400" y="-960" as="sourcePoint" />
            <mxPoint x="590" y="-960" as="targetPoint" />
          </mxGeometry>
        </mxCell>
        <mxCell id="Grk3ASspi7itF8LlZDWV-8" value="終了局面を読み切る" style="edgeLabel;resizable=0;html=1;align=center;verticalAlign=middle;" parent="Grk3ASspi7itF8LlZDWV-7" connectable="0" vertex="1">
          <mxGeometry relative="1" as="geometry" />
        </mxCell>
        <mxCell id="Grk3ASspi7itF8LlZDWV-9" value="状態：圏論からのスキル化" style="swimlane;whiteSpace=wrap;html=1;" parent="1" vertex="1">
          <mxGeometry x="40" y="-1510" width="760" height="280" as="geometry" />
        </mxCell>
        <mxCell id="Grk3ASspi7itF8LlZDWV-10" value="" style="endArrow=classic;html=1;rounded=0;fillColor=#019e95;shape=flexArrow;width=3;endSize=7.17;endWidth=6;strokeColor=none;exitX=1;exitY=0.5;exitDx=0;exitDy=0;" parent="Grk3ASspi7itF8LlZDWV-9" edge="1">
          <mxGeometry relative="1" as="geometry">
            <mxPoint x="61.99999999994952" y="80" as="sourcePoint" />
            <mxPoint x="120" y="80" as="targetPoint" />
          </mxGeometry>
        </mxCell>
        <mxCell id="Grk3ASspi7itF8LlZDWV-11" value="Vim" style="edgeLabel;resizable=0;html=1;align=center;verticalAlign=middle;" parent="Grk3ASspi7itF8LlZDWV-10" connectable="0" vertex="1">
          <mxGeometry relative="1" as="geometry" />
        </mxCell>
        <mxCell id="Grk3ASspi7itF8LlZDWV-12" value="" style="endArrow=classic;html=1;rounded=0;fillColor=#6666FF;shape=flexArrow;width=3;endSize=7.17;endWidth=6;strokeColor=none;entryX=0;entryY=0.5;entryDx=0;entryDy=0;" parent="Grk3ASspi7itF8LlZDWV-9" target="Grk3ASspi7itF8LlZDWV-22" edge="1">
          <mxGeometry relative="1" as="geometry">
            <mxPoint x="259.68" y="154.5" as="sourcePoint" />
            <mxPoint x="360" y="190" as="targetPoint" />
          </mxGeometry>
        </mxCell>
        <mxCell id="Grk3ASspi7itF8LlZDWV-13" value="心理術" style="edgeLabel;resizable=0;html=1;align=center;verticalAlign=middle;" parent="Grk3ASspi7itF8LlZDWV-12" connectable="0" vertex="1">
          <mxGeometry relative="1" as="geometry" />
        </mxCell>
        <mxCell id="Grk3ASspi7itF8LlZDWV-14" value="&lt;font style=&quot;font-size: 14px;&quot;&gt;何もない&lt;br&gt;&lt;/font&gt;" style="text;html=1;strokeColor=none;fillColor=none;align=center;verticalAlign=middle;whiteSpace=wrap;rounded=0;" parent="Grk3ASspi7itF8LlZDWV-9" vertex="1">
          <mxGeometry x="10" y="60" width="40" height="40" as="geometry" />
        </mxCell>
        <mxCell id="Grk3ASspi7itF8LlZDWV-15" value="Docker" style="rounded=1;fillColor=#10739E;strokeColor=none;shadow=0;gradientColor=none;fontStyle=1;fontColor=#FFFFFF;fontSize=14;" parent="Grk3ASspi7itF8LlZDWV-9" vertex="1">
          <mxGeometry x="39.999999999999886" y="120" width="69.68" height="70" as="geometry" />
        </mxCell>
        <mxCell id="Grk3ASspi7itF8LlZDWV-16" value="" style="endArrow=classic;html=1;rounded=0;fillColor=#66B2FF;shape=flexArrow;width=3;endSize=7.17;endWidth=6;strokeColor=none;exitX=1;exitY=0.5;exitDx=0;exitDy=0;entryX=0;entryY=0.5;entryDx=0;entryDy=0;" parent="Grk3ASspi7itF8LlZDWV-9" source="Grk3ASspi7itF8LlZDWV-15" target="Grk3ASspi7itF8LlZDWV-18" edge="1">
          <mxGeometry relative="1" as="geometry">
            <mxPoint x="109.68" y="154.5" as="sourcePoint" />
            <mxPoint x="189.68" y="154.5" as="targetPoint" />
          </mxGeometry>
        </mxCell>
        <mxCell id="Grk3ASspi7itF8LlZDWV-17" value="圏論" style="edgeLabel;resizable=0;html=1;align=center;verticalAlign=middle;" parent="Grk3ASspi7itF8LlZDWV-16" connectable="0" vertex="1">
          <mxGeometry relative="1" as="geometry" />
        </mxCell>
        <mxCell id="Grk3ASspi7itF8LlZDWV-18" value="観察力の&#xa;基礎" style="rounded=1;fillColor=#10739E;strokeColor=none;shadow=0;gradientColor=none;fontStyle=1;fontColor=#FFFFFF;fontSize=14;" parent="Grk3ASspi7itF8LlZDWV-9" vertex="1">
          <mxGeometry x="189.9999999999999" y="120" width="69.68" height="70" as="geometry" />
        </mxCell>
        <mxCell id="Grk3ASspi7itF8LlZDWV-19" value="心理学&#xa;DB" style="rounded=1;fillColor=#6666FF;strokeColor=#6666FF;shadow=0;gradientColor=none;fontStyle=1;fontColor=#FFFFFF;fontSize=14;" parent="Grk3ASspi7itF8LlZDWV-9" vertex="1">
          <mxGeometry x="190.00000000000006" y="200" width="69.79" height="70" as="geometry" />
        </mxCell>
        <mxCell id="Grk3ASspi7itF8LlZDWV-20" value="" style="endArrow=classic;html=1;rounded=0;fillColor=#6666FF;shape=flexArrow;width=3;endSize=7.17;endWidth=6;strokeColor=none;entryX=0;entryY=0.5;entryDx=0;entryDy=0;" parent="Grk3ASspi7itF8LlZDWV-9" target="Grk3ASspi7itF8LlZDWV-22" edge="1">
          <mxGeometry relative="1" as="geometry">
            <mxPoint x="259.68" y="234.5" as="sourcePoint" />
            <mxPoint x="360" y="200" as="targetPoint" />
          </mxGeometry>
        </mxCell>
        <mxCell id="Grk3ASspi7itF8LlZDWV-21" value="心理術" style="edgeLabel;resizable=0;html=1;align=center;verticalAlign=middle;" parent="Grk3ASspi7itF8LlZDWV-20" connectable="0" vertex="1">
          <mxGeometry relative="1" as="geometry" />
        </mxCell>
        <mxCell id="Grk3ASspi7itF8LlZDWV-22" value="会議領域" style="swimlane;whiteSpace=wrap;html=1;" parent="Grk3ASspi7itF8LlZDWV-9" vertex="1">
          <mxGeometry x="360" y="130" width="390" height="130" as="geometry" />
        </mxCell>
        <mxCell id="4OIpWaBSAvoMjhRQVzah-2" value="本質の把握" style="rounded=1;fillColor=#10739E;strokeColor=none;shadow=0;gradientColor=none;fontStyle=1;fontColor=#FFFFFF;fontSize=14;" parent="Grk3ASspi7itF8LlZDWV-22" vertex="1">
          <mxGeometry x="13.99999999999988" y="40" width="69.68" height="70" as="geometry" />
        </mxCell>
        <mxCell id="4OIpWaBSAvoMjhRQVzah-3" value="誘導" style="rounded=1;fillColor=#6666FF;strokeColor=#6666FF;shadow=0;gradientColor=none;fontStyle=1;fontColor=#FFFFFF;fontSize=14;" parent="Grk3ASspi7itF8LlZDWV-22" vertex="1">
          <mxGeometry x="300" y="40" width="69.79" height="70" as="geometry" />
        </mxCell>
        <mxCell id="4OIpWaBSAvoMjhRQVzah-7" value="" style="endArrow=classic;html=1;rounded=0;fillColor=#019e95;shape=flexArrow;width=3;endSize=7.17;endWidth=6;strokeColor=none;exitX=1;exitY=0.5;exitDx=0;exitDy=0;entryX=0;entryY=0.5;entryDx=0;entryDy=0;" parent="Grk3ASspi7itF8LlZDWV-22" source="4OIpWaBSAvoMjhRQVzah-2" target="4OIpWaBSAvoMjhRQVzah-9" edge="1">
          <mxGeometry relative="1" as="geometry">
            <mxPoint x="109.99999999994952" y="74.5" as="sourcePoint" />
            <mxPoint x="168" y="74.5" as="targetPoint" />
          </mxGeometry>
        </mxCell>
        <mxCell id="4OIpWaBSAvoMjhRQVzah-8" value="AIM" style="edgeLabel;resizable=0;html=1;align=center;verticalAlign=middle;" parent="4OIpWaBSAvoMjhRQVzah-7" connectable="0" vertex="1">
          <mxGeometry relative="1" as="geometry" />
        </mxCell>
        <mxCell id="4OIpWaBSAvoMjhRQVzah-9" value="終了図&#xa;の想像" style="rounded=1;fillColor=#6666FF;strokeColor=#6666FF;shadow=0;gradientColor=none;fontStyle=1;fontColor=#FFFFFF;fontSize=14;" parent="Grk3ASspi7itF8LlZDWV-22" vertex="1">
          <mxGeometry x="160.11" y="40" width="69.79" height="70" as="geometry" />
        </mxCell>
        <mxCell id="4OIpWaBSAvoMjhRQVzah-10" value="" style="endArrow=classic;html=1;rounded=0;fillColor=#6666FF;shape=flexArrow;width=3;endSize=7.17;endWidth=6;strokeColor=none;entryX=0;entryY=0.5;entryDx=0;entryDy=0;exitX=1;exitY=0.5;exitDx=0;exitDy=0;" parent="Grk3ASspi7itF8LlZDWV-22" source="4OIpWaBSAvoMjhRQVzah-9" target="4OIpWaBSAvoMjhRQVzah-3" edge="1">
          <mxGeometry relative="1" as="geometry">
            <mxPoint x="-90.32" y="114.5" as="sourcePoint" />
            <mxPoint x="10" y="75" as="targetPoint" />
          </mxGeometry>
        </mxCell>
        <mxCell id="4OIpWaBSAvoMjhRQVzah-11" value="心理術" style="edgeLabel;resizable=0;html=1;align=center;verticalAlign=middle;" parent="4OIpWaBSAvoMjhRQVzah-10" connectable="0" vertex="1">
          <mxGeometry relative="1" as="geometry" />
        </mxCell>
        <mxCell id="4OIpWaBSAvoMjhRQVzah-4" value="" style="endArrow=classic;html=1;rounded=0;fillColor=#019e95;shape=flexArrow;width=3;endSize=7.17;endWidth=6;strokeColor=none;exitX=1;exitY=0.5;exitDx=0;exitDy=0;" parent="Grk3ASspi7itF8LlZDWV-9" edge="1">
          <mxGeometry relative="1" as="geometry">
            <mxPoint x="179.99999999994952" y="79.5" as="sourcePoint" />
            <mxPoint x="238" y="79.5" as="targetPoint" />
          </mxGeometry>
        </mxCell>
        <mxCell id="4OIpWaBSAvoMjhRQVzah-5" value="AIM" style="edgeLabel;resizable=0;html=1;align=center;verticalAlign=middle;" parent="4OIpWaBSAvoMjhRQVzah-4" connectable="0" vertex="1">
          <mxGeometry relative="1" as="geometry" />
        </mxCell>
        <mxCell id="3vcQB0C9pp6So1rZS9XH-1" value="状態：圏論からのスキル化" style="swimlane;whiteSpace=wrap;html=1;" parent="1" vertex="1">
          <mxGeometry x="40" y="-1980" width="760" height="450" as="geometry" />
        </mxCell>
        <mxCell id="3vcQB0C9pp6So1rZS9XH-6" value="&lt;font style=&quot;font-size: 14px;&quot;&gt;何もない&lt;br&gt;&lt;/font&gt;" style="text;html=1;strokeColor=none;fillColor=none;align=center;verticalAlign=middle;whiteSpace=wrap;rounded=0;" parent="3vcQB0C9pp6So1rZS9XH-1" vertex="1">
          <mxGeometry x="10" y="60" width="40" height="40" as="geometry" />
        </mxCell>
        <mxCell id="3vcQB0C9pp6So1rZS9XH-7" value="有言実行&#xa;できるといったことは&#xa;大体できてしまう" style="rounded=1;fillColor=#10739E;strokeColor=none;shadow=0;gradientColor=none;fontStyle=1;fontColor=#FFFFFF;fontSize=14;" parent="3vcQB0C9pp6So1rZS9XH-1" vertex="1">
          <mxGeometry x="40" y="120" width="160" height="70" as="geometry" />
        </mxCell>
        <mxCell id="3vcQB0C9pp6So1rZS9XH-24" value="デッキの中身&#xa;育てデッキ" style="rounded=1;fillColor=#10739E;strokeColor=none;shadow=0;gradientColor=none;fontStyle=1;fontColor=#FFFFFF;fontSize=14;" parent="3vcQB0C9pp6So1rZS9XH-1" vertex="1">
          <mxGeometry x="40" y="227" width="160" height="70" as="geometry" />
        </mxCell>
        <mxCell id="igPosv9aw8RWdcacOeQP-1" value="状態：圏論からのスキル化" style="swimlane;whiteSpace=wrap;html=1;" parent="1" vertex="1">
          <mxGeometry x="40" y="-2450" width="760" height="450" as="geometry" />
        </mxCell>
        <mxCell id="mrgv56XyLkmAIUHV8rIz-3" style="edgeStyle=orthogonalEdgeStyle;rounded=0;orthogonalLoop=1;jettySize=auto;html=1;entryX=1;entryY=0.5;entryDx=0;entryDy=0;" parent="igPosv9aw8RWdcacOeQP-1" source="mdJNGc4BsN1ddH7MZ3hf-1" target="mrgv56XyLkmAIUHV8rIz-1" edge="1">
          <mxGeometry relative="1" as="geometry" />
        </mxCell>
        <mxCell id="mdJNGc4BsN1ddH7MZ3hf-1" value="ブログ" style="rounded=1;fillColor=#10739E;strokeColor=none;shadow=0;gradientColor=none;fontStyle=1;fontColor=#FFFFFF;fontSize=14;" parent="igPosv9aw8RWdcacOeQP-1" vertex="1">
          <mxGeometry x="373.5" y="135" width="71" height="70" as="geometry" />
        </mxCell>
        <mxCell id="mrgv56XyLkmAIUHV8rIz-4" style="edgeStyle=orthogonalEdgeStyle;rounded=0;orthogonalLoop=1;jettySize=auto;html=1;entryX=0;entryY=0.5;entryDx=0;entryDy=0;" parent="igPosv9aw8RWdcacOeQP-1" source="mrgv56XyLkmAIUHV8rIz-1" target="mdJNGc4BsN1ddH7MZ3hf-1" edge="1">
          <mxGeometry relative="1" as="geometry" />
        </mxCell>
        <mxCell id="mrgv56XyLkmAIUHV8rIz-1" value="Adsense" style="rounded=1;fillColor=#333333;strokeColor=none;shadow=0;gradientColor=none;fontStyle=1;fontColor=#FFFFFF;fontSize=14;" parent="igPosv9aw8RWdcacOeQP-1" vertex="1">
          <mxGeometry x="315.5" y="245" width="70" height="70" as="geometry" />
        </mxCell>
      </root>
    </mxGraphModel>
  </diagram>
  <diagram name="2024year" id="uiUMKeZ0txUB_UNjZnf_">
    <mxGraphModel dx="1194" dy="1750" grid="1" gridSize="10" guides="1" tooltips="1" connect="1" arrows="1" fold="1" page="1" pageScale="1" pageWidth="827" pageHeight="1169" math="0" shadow="0">
      <root>
        <mxCell id="Bh7SMV7lsvvrdX1vqtc6-0" />
        <mxCell id="Bh7SMV7lsvvrdX1vqtc6-1" parent="Bh7SMV7lsvvrdX1vqtc6-0" />
        <mxCell id="Bh7SMV7lsvvrdX1vqtc6-5" value="1月" style="html=1;shadow=0;dashed=0;align=center;verticalAlign=middle;shape=mxgraph.arrows2.arrow;dy=0;dx=10;notch=10;" parent="Bh7SMV7lsvvrdX1vqtc6-1" vertex="1">
          <mxGeometry x="914.11" y="120" width="331" height="70" as="geometry" />
        </mxCell>
        <mxCell id="Bh7SMV7lsvvrdX1vqtc6-13" value="2月" style="html=1;shadow=0;dashed=0;align=center;verticalAlign=middle;shape=mxgraph.arrows2.arrow;dy=0;dx=10;notch=10;" parent="Bh7SMV7lsvvrdX1vqtc6-1" vertex="1">
          <mxGeometry x="1234.11" y="120" width="331" height="70" as="geometry" />
        </mxCell>
        <mxCell id="Bh7SMV7lsvvrdX1vqtc6-14" value="3月" style="html=1;shadow=0;dashed=0;align=center;verticalAlign=middle;shape=mxgraph.arrows2.arrow;dy=0;dx=10;notch=10;" parent="Bh7SMV7lsvvrdX1vqtc6-1" vertex="1">
          <mxGeometry x="1554.11" y="120" width="331" height="70" as="geometry" />
        </mxCell>
        <mxCell id="Bh7SMV7lsvvrdX1vqtc6-15" value="4月" style="html=1;shadow=0;dashed=0;align=center;verticalAlign=middle;shape=mxgraph.arrows2.arrow;dy=0;dx=10;notch=10;" parent="Bh7SMV7lsvvrdX1vqtc6-1" vertex="1">
          <mxGeometry x="1874.11" y="120" width="331" height="70" as="geometry" />
        </mxCell>
        <mxCell id="Bh7SMV7lsvvrdX1vqtc6-37" value="&lt;h1&gt;年間目標：現金化&lt;/h1&gt;" style="text;html=1;strokeColor=none;fillColor=none;spacing=5;spacingTop=-20;whiteSpace=wrap;overflow=hidden;rounded=0;shadow=0;" parent="Bh7SMV7lsvvrdX1vqtc6-1" vertex="1">
          <mxGeometry x="893.11" y="40" width="266.89" height="40" as="geometry" />
        </mxCell>
        <mxCell id="Ru7E1SiRD02BdjEPUVSw-0" value="5月" style="html=1;shadow=0;dashed=0;align=center;verticalAlign=middle;shape=mxgraph.arrows2.arrow;dy=0;dx=10;notch=10;" parent="Bh7SMV7lsvvrdX1vqtc6-1" vertex="1">
          <mxGeometry x="2193.11" y="120" width="331" height="70" as="geometry" />
        </mxCell>
        <mxCell id="Ru7E1SiRD02BdjEPUVSw-1" value="6月" style="html=1;shadow=0;dashed=0;align=center;verticalAlign=middle;shape=mxgraph.arrows2.arrow;dy=0;dx=10;notch=10;" parent="Bh7SMV7lsvvrdX1vqtc6-1" vertex="1">
          <mxGeometry x="2513.11" y="120" width="331" height="70" as="geometry" />
        </mxCell>
        <mxCell id="Ru7E1SiRD02BdjEPUVSw-2" value="7月" style="html=1;shadow=0;dashed=0;align=center;verticalAlign=middle;shape=mxgraph.arrows2.arrow;dy=0;dx=10;notch=10;" parent="Bh7SMV7lsvvrdX1vqtc6-1" vertex="1">
          <mxGeometry x="2833.11" y="120" width="331" height="70" as="geometry" />
        </mxCell>
        <mxCell id="Ru7E1SiRD02BdjEPUVSw-3" value="8月" style="html=1;shadow=0;dashed=0;align=center;verticalAlign=middle;shape=mxgraph.arrows2.arrow;dy=0;dx=10;notch=10;" parent="Bh7SMV7lsvvrdX1vqtc6-1" vertex="1">
          <mxGeometry x="3153.11" y="120" width="331" height="70" as="geometry" />
        </mxCell>
        <mxCell id="Ru7E1SiRD02BdjEPUVSw-4" value="9月" style="html=1;shadow=0;dashed=0;align=center;verticalAlign=middle;shape=mxgraph.arrows2.arrow;dy=0;dx=10;notch=10;" parent="Bh7SMV7lsvvrdX1vqtc6-1" vertex="1">
          <mxGeometry x="3473.11" y="120" width="331" height="70" as="geometry" />
        </mxCell>
        <mxCell id="Ru7E1SiRD02BdjEPUVSw-5" value="10月" style="html=1;shadow=0;dashed=0;align=center;verticalAlign=middle;shape=mxgraph.arrows2.arrow;dy=0;dx=10;notch=10;" parent="Bh7SMV7lsvvrdX1vqtc6-1" vertex="1">
          <mxGeometry x="3793.11" y="120" width="331" height="70" as="geometry" />
        </mxCell>
        <mxCell id="Ru7E1SiRD02BdjEPUVSw-6" value="11月" style="html=1;shadow=0;dashed=0;align=center;verticalAlign=middle;shape=mxgraph.arrows2.arrow;dy=0;dx=10;notch=10;" parent="Bh7SMV7lsvvrdX1vqtc6-1" vertex="1">
          <mxGeometry x="4113.11" y="120" width="331" height="70" as="geometry" />
        </mxCell>
        <mxCell id="Ru7E1SiRD02BdjEPUVSw-7" value="12月" style="html=1;shadow=0;dashed=0;align=center;verticalAlign=middle;shape=mxgraph.arrows2.arrow;dy=0;dx=10;notch=10;" parent="Bh7SMV7lsvvrdX1vqtc6-1" vertex="1">
          <mxGeometry x="4432.11" y="120" width="331" height="70" as="geometry" />
        </mxCell>
        <mxCell id="Nnz3KufJM8YvIq1ucivo-0" value="myworking&#xa;思考0で使える" style="rounded=1;fillColor=#019e95;strokeColor=none;shadow=0;gradientColor=none;fontStyle=1;fontColor=#FFFFFF;fontSize=14;" parent="Bh7SMV7lsvvrdX1vqtc6-1" vertex="1">
          <mxGeometry x="919.9" y="517.5" width="230" height="70" as="geometry" />
        </mxCell>
        <mxCell id="qe8sTHdyQwKMezYS5cEN-0" value="Hask圏の理解&#xa;または、わからない点を洗い出す" style="rounded=1;fillColor=#66B2FF;strokeColor=none;shadow=0;gradientColor=none;fontStyle=1;fontColor=#FFFFFF;fontSize=14;" parent="Bh7SMV7lsvvrdX1vqtc6-1" vertex="1">
          <mxGeometry x="3480" y="199" width="230" height="70" as="geometry" />
        </mxCell>
        <mxCell id="jRalXt3Lo8aVCcbiEd2y-0" value="Monado" style="rounded=1;fillColor=#66B2FF;strokeColor=none;shadow=0;gradientColor=none;fontStyle=1;fontColor=#FFFFFF;fontSize=14;" parent="Bh7SMV7lsvvrdX1vqtc6-1" vertex="1">
          <mxGeometry x="919.22" y="200" width="70.78" height="70" as="geometry" />
        </mxCell>
        <mxCell id="qoBEbC7VUqetlN-z6JW1-4" value="ラポール&#xa;形成" style="rounded=1;fillColor=#6666FF;strokeColor=#6666FF;shadow=0;gradientColor=none;fontStyle=1;fontColor=#FFFFFF;fontSize=14;" parent="Bh7SMV7lsvvrdX1vqtc6-1" vertex="1">
          <mxGeometry x="840.11" y="599" width="68.75" height="70" as="geometry" />
        </mxCell>
        <mxCell id="qoBEbC7VUqetlN-z6JW1-5" value="Docker" style="rounded=1;fillColor=#10739E;strokeColor=none;shadow=0;gradientColor=none;fontStyle=1;fontColor=#FFFFFF;fontSize=14;" parent="Bh7SMV7lsvvrdX1vqtc6-1" vertex="1">
          <mxGeometry x="840.11" y="280" width="69.68" height="70" as="geometry" />
        </mxCell>
        <mxCell id="i2unB3EMkpE1uEA1lS_7-0" value="Vim" style="rounded=1;fillColor=#019e95;strokeColor=none;shadow=0;gradientColor=none;fontStyle=1;fontColor=#FFFFFF;fontSize=14;" parent="Bh7SMV7lsvvrdX1vqtc6-1" vertex="1">
          <mxGeometry x="838.75" y="517.5" width="69.79" height="70" as="geometry" />
        </mxCell>
        <mxCell id="P20HAH3YQLcSrejL2LfM-0" value="Haskell" style="rounded=1;fillColor=#66B2FF;strokeColor=none;shadow=0;gradientColor=none;fontStyle=1;fontColor=#FFFFFF;fontSize=14;" parent="Bh7SMV7lsvvrdX1vqtc6-1" vertex="1">
          <mxGeometry x="840" y="200" width="68.75" height="70" as="geometry" />
        </mxCell>
        <mxCell id="jypz1bNjbopJdEoWJgeo-0" value="ケース別&#xa;会話の展開" style="rounded=1;fillColor=#6666FF;strokeColor=#6666FF;shadow=0;gradientColor=none;fontStyle=1;fontColor=#FFFFFF;fontSize=14;" parent="Bh7SMV7lsvvrdX1vqtc6-1" vertex="1">
          <mxGeometry x="917.96" y="599" width="70" height="70" as="geometry" />
        </mxCell>
        <mxCell id="jypz1bNjbopJdEoWJgeo-2" value="コンテナ&#xa;コンサル&#xa;開業&#xa;説明" style="rounded=1;fillColor=#6666FF;strokeColor=#6666FF;shadow=0;gradientColor=none;fontStyle=1;fontColor=#FFFFFF;fontSize=14;" parent="Bh7SMV7lsvvrdX1vqtc6-1" vertex="1">
          <mxGeometry x="1560" y="760" width="70" height="70" as="geometry" />
        </mxCell>
        <mxCell id="jypz1bNjbopJdEoWJgeo-3" value="ケース別&#xa;会話の展開" style="rounded=1;fillColor=#6666FF;strokeColor=#6666FF;shadow=0;gradientColor=none;fontStyle=1;fontColor=#FFFFFF;fontSize=14;" parent="Bh7SMV7lsvvrdX1vqtc6-1" vertex="1">
          <mxGeometry x="1240.5" y="600" width="70" height="70" as="geometry" />
        </mxCell>
        <mxCell id="T1CbnWRcXSP3Cxb9pG7G-1" value="恒等写像" style="rounded=1;fillColor=#66B2FF;strokeColor=none;shadow=0;gradientColor=none;fontStyle=1;fontColor=#FFFFFF;fontSize=14;" parent="Bh7SMV7lsvvrdX1vqtc6-1" vertex="1">
          <mxGeometry x="919.22" y="280" width="70.78" height="70" as="geometry" />
        </mxCell>
        <mxCell id="3-p_pDvlx70PaO5AAdoC-0" value="class&#xa;instance" style="rounded=1;fillColor=#66B2FF;strokeColor=none;shadow=0;gradientColor=none;fontStyle=1;fontColor=#FFFFFF;fontSize=14;" parent="Bh7SMV7lsvvrdX1vqtc6-1" vertex="1">
          <mxGeometry x="1000" y="362" width="70.78" height="70" as="geometry" />
        </mxCell>
        <mxCell id="3-p_pDvlx70PaO5AAdoC-1" value="data" style="rounded=1;fillColor=#66B2FF;strokeColor=none;shadow=0;gradientColor=none;fontStyle=1;fontColor=#FFFFFF;fontSize=14;" parent="Bh7SMV7lsvvrdX1vqtc6-1" vertex="1">
          <mxGeometry x="1000" y="281" width="70.78" height="70" as="geometry" />
        </mxCell>
        <mxCell id="3-p_pDvlx70PaO5AAdoC-2" value="haskell&#xa;condition" style="rounded=1;fillColor=#66B2FF;strokeColor=none;shadow=0;gradientColor=none;fontStyle=1;fontColor=#FFFFFF;fontSize=14;" parent="Bh7SMV7lsvvrdX1vqtc6-1" vertex="1">
          <mxGeometry x="1000" y="200" width="70.78" height="70" as="geometry" />
        </mxCell>
        <mxCell id="ry8YSv5Op1cK6eL4UVYr-0" value="圏論&#xa;米田の定理&#xa;理解" style="rounded=1;fillColor=#66B2FF;strokeColor=none;shadow=0;gradientColor=none;fontStyle=1;fontColor=#FFFFFF;fontSize=14;" parent="Bh7SMV7lsvvrdX1vqtc6-1" vertex="1">
          <mxGeometry x="3720" y="199" width="310" height="70" as="geometry" />
        </mxCell>
        <mxCell id="A44UQFyMIV8JrDTXDl7x-0" value="haskell&#xa;where" style="rounded=1;fillColor=#66B2FF;strokeColor=none;shadow=0;gradientColor=none;fontStyle=1;fontColor=#FFFFFF;fontSize=14;" parent="Bh7SMV7lsvvrdX1vqtc6-1" vertex="1">
          <mxGeometry x="920" y="362" width="70.78" height="70" as="geometry" />
        </mxCell>
        <mxCell id="j478CvmTv8a5lj066NqU-0" value="jbck&#xa;UIUX" style="rounded=1;fillColor=#B266FF;strokeColor=#CC99FF;shadow=0;gradientColor=none;fontStyle=1;fontColor=#FFFFFF;fontSize=14;" parent="Bh7SMV7lsvvrdX1vqtc6-1" vertex="1">
          <mxGeometry x="999.2" y="599" width="230" height="70" as="geometry" />
        </mxCell>
        <mxCell id="aptqJN1X2nqDKCvHdTp3-0" value="世界一&#xa;やさしい&#xa;圏論勉強会" style="rounded=1;fillColor=#66B2FF;strokeColor=none;shadow=0;gradientColor=none;fontStyle=1;fontColor=#FFFFFF;fontSize=14;" parent="Bh7SMV7lsvvrdX1vqtc6-1" vertex="1">
          <mxGeometry x="1159.2" y="203" width="70" height="70" as="geometry" />
        </mxCell>
        <mxCell id="jQR0Lkv0l3frM5dynBtp-0" value="準同型性" style="rounded=1;fillColor=#66B2FF;strokeColor=none;shadow=0;gradientColor=none;fontStyle=1;fontColor=#FFFFFF;fontSize=14;" parent="Bh7SMV7lsvvrdX1vqtc6-1" vertex="1">
          <mxGeometry x="1080" y="201" width="70" height="70" as="geometry" />
        </mxCell>
        <mxCell id="GwFR8R6grh2XvskKRjrV-0" value="Haskell&#xa;Compiler" style="rounded=1;fillColor=#66B2FF;strokeColor=none;shadow=0;gradientColor=none;fontStyle=1;fontColor=#FFFFFF;fontSize=14;" parent="Bh7SMV7lsvvrdX1vqtc6-1" vertex="1">
          <mxGeometry x="1080" y="282" width="70" height="70" as="geometry" />
        </mxCell>
        <mxCell id="qGFE-_6TUpEKcDIa3ldZ-0" value="新人へ期待&#xa;TEM" style="rounded=1;fillColor=#6666FF;strokeColor=#6666FF;shadow=0;gradientColor=none;fontStyle=1;fontColor=#FFFFFF;fontSize=14;" parent="Bh7SMV7lsvvrdX1vqtc6-1" vertex="1">
          <mxGeometry x="1159.73" y="679" width="70" height="70" as="geometry" />
        </mxCell>
        <mxCell id="6jQH_a4es7nJc6ZHCs8M-0" value="Astro&#xa;NeoVim" style="rounded=1;fillColor=#019e95;strokeColor=none;shadow=0;gradientColor=none;fontStyle=1;fontColor=#FFFFFF;fontSize=14;" parent="Bh7SMV7lsvvrdX1vqtc6-1" vertex="1">
          <mxGeometry x="1160" y="517.5" width="69.79" height="70" as="geometry" />
        </mxCell>
        <mxCell id="7E724pbm7jZKlNEOCbff-0" value="jbck&#xa;UIUX" style="rounded=1;fillColor=#B266FF;strokeColor=#CC99FF;shadow=0;gradientColor=none;fontStyle=1;fontColor=#FFFFFF;fontSize=14;" parent="Bh7SMV7lsvvrdX1vqtc6-1" vertex="1">
          <mxGeometry x="1240.5" y="203" width="70" height="308" as="geometry" />
        </mxCell>
        <mxCell id="mPTt3LZTsxk55QQu-T8V-1" value="UIUX" style="rounded=1;fillColor=#B266FF;strokeColor=#CC99FF;shadow=0;gradientColor=none;fontStyle=1;fontColor=#FFFFFF;fontSize=14;" parent="Bh7SMV7lsvvrdX1vqtc6-1" vertex="1">
          <mxGeometry x="838.75" y="679" width="70" height="70" as="geometry" />
        </mxCell>
        <mxCell id="duPP6bcqDp1AFfqTGehE-0" value="jbck&#xa;UIUX" style="rounded=1;fillColor=#B266FF;strokeColor=#CC99FF;shadow=0;gradientColor=none;fontStyle=1;fontColor=#FFFFFF;fontSize=14;" parent="Bh7SMV7lsvvrdX1vqtc6-1" vertex="1">
          <mxGeometry x="1321.07" y="202" width="70" height="310" as="geometry" />
        </mxCell>
        <mxCell id="H6MHIBX784NyPrdrSWMC-0" value="Docker&#xa;Install&#xa;trouble&#xa;shooting" style="rounded=1;fillColor=#10739E;strokeColor=none;shadow=0;gradientColor=none;fontStyle=1;fontColor=#FFFFFF;fontSize=14;" parent="Bh7SMV7lsvvrdX1vqtc6-1" vertex="1">
          <mxGeometry x="1321.07" y="522" width="69.68" height="70" as="geometry" />
        </mxCell>
        <mxCell id="wzF8_HgIIEI5iv_-6a3g-0" value="miyoshi&#xa;ootubo&#xa;&#xa;Docker&#xa;といえば&#xa;&#xa;みねぎし&#xa;れい" style="rounded=1;fillColor=#10739E;strokeColor=none;shadow=0;gradientColor=none;fontStyle=1;fontColor=#FFFFFF;fontSize=14;" parent="Bh7SMV7lsvvrdX1vqtc6-1" vertex="1">
          <mxGeometry x="1400.32" y="202" width="70" height="308" as="geometry" />
        </mxCell>
        <mxCell id="kZjux4qFUfHDN98HLEmx-0" value="Vagrant&#xa;Install" style="rounded=1;fillColor=#10739E;strokeColor=none;shadow=0;gradientColor=none;fontStyle=1;fontColor=#FFFFFF;fontSize=14;" parent="Bh7SMV7lsvvrdX1vqtc6-1" vertex="1">
          <mxGeometry x="1400.32" y="522" width="69.68" height="70" as="geometry" />
        </mxCell>
        <mxCell id="zBPXHjlnpG0N1R4RMS1n-0" value="Vim" style="rounded=1;fillColor=#019e95;strokeColor=none;shadow=0;gradientColor=none;fontStyle=1;fontColor=#FFFFFF;fontSize=14;" parent="Bh7SMV7lsvvrdX1vqtc6-1" vertex="1">
          <mxGeometry x="577.77" y="520.75" width="71.75" height="70" as="geometry" />
        </mxCell>
        <mxCell id="zBPXHjlnpG0N1R4RMS1n-1" value="Haskell" style="rounded=1;fillColor=#66B2FF;strokeColor=none;shadow=0;gradientColor=none;fontStyle=1;fontColor=#FFFFFF;fontSize=14;" parent="Bh7SMV7lsvvrdX1vqtc6-1" vertex="1">
          <mxGeometry x="581.25" y="200" width="68.75" height="70" as="geometry" />
        </mxCell>
        <mxCell id="zBPXHjlnpG0N1R4RMS1n-2" value="心理学" style="rounded=1;fillColor=#6666FF;strokeColor=#6666FF;shadow=0;gradientColor=none;fontStyle=1;fontColor=#FFFFFF;fontSize=14;" parent="Bh7SMV7lsvvrdX1vqtc6-1" vertex="1">
          <mxGeometry x="578.01" y="599.75" width="72.75" height="70" as="geometry" />
        </mxCell>
        <mxCell id="zBPXHjlnpG0N1R4RMS1n-3" style="edgeStyle=orthogonalEdgeStyle;rounded=0;orthogonalLoop=1;jettySize=auto;html=1;" parent="Bh7SMV7lsvvrdX1vqtc6-1" source="zBPXHjlnpG0N1R4RMS1n-4" target="zBPXHjlnpG0N1R4RMS1n-1" edge="1">
          <mxGeometry relative="1" as="geometry">
            <mxPoint x="569.54" y="240" as="targetPoint" />
          </mxGeometry>
        </mxCell>
        <mxCell id="zBPXHjlnpG0N1R4RMS1n-4" value="副作用を&#xa;減らす" style="rounded=1;fillColor=#66B2FF;strokeColor=none;shadow=0;gradientColor=none;fontStyle=1;fontColor=#FFFFFF;fontSize=14;" parent="Bh7SMV7lsvvrdX1vqtc6-1" vertex="1">
          <mxGeometry x="400" y="200" width="150" height="70" as="geometry" />
        </mxCell>
        <mxCell id="zBPXHjlnpG0N1R4RMS1n-5" style="edgeStyle=orthogonalEdgeStyle;rounded=0;orthogonalLoop=1;jettySize=auto;html=1;entryX=0;entryY=0.5;entryDx=0;entryDy=0;" parent="Bh7SMV7lsvvrdX1vqtc6-1" source="zBPXHjlnpG0N1R4RMS1n-6" target="zBPXHjlnpG0N1R4RMS1n-0" edge="1">
          <mxGeometry relative="1" as="geometry" />
        </mxCell>
        <mxCell id="zBPXHjlnpG0N1R4RMS1n-6" value="物理的に早く動く" style="rounded=1;fillColor=#019e95;strokeColor=none;shadow=0;gradientColor=none;fontStyle=1;fontColor=#FFFFFF;fontSize=14;" parent="Bh7SMV7lsvvrdX1vqtc6-1" vertex="1">
          <mxGeometry x="399.52" y="520.75" width="150" height="70" as="geometry" />
        </mxCell>
        <mxCell id="zBPXHjlnpG0N1R4RMS1n-7" style="edgeStyle=orthogonalEdgeStyle;rounded=0;orthogonalLoop=1;jettySize=auto;html=1;" parent="Bh7SMV7lsvvrdX1vqtc6-1" source="zBPXHjlnpG0N1R4RMS1n-8" target="zBPXHjlnpG0N1R4RMS1n-2" edge="1">
          <mxGeometry relative="1" as="geometry" />
        </mxCell>
        <mxCell id="zBPXHjlnpG0N1R4RMS1n-8" value="心理学" style="rounded=1;fillColor=#6666FF;strokeColor=#6666FF;shadow=0;gradientColor=none;fontStyle=1;fontColor=#FFFFFF;fontSize=14;" parent="Bh7SMV7lsvvrdX1vqtc6-1" vertex="1">
          <mxGeometry x="400.76" y="600.75" width="150" height="70" as="geometry" />
        </mxCell>
        <mxCell id="zBPXHjlnpG0N1R4RMS1n-9" value="" style="rounded=0;whiteSpace=wrap;html=1;strokeColor=#CCCCCC;fillColor=#CCCCCC;" parent="Bh7SMV7lsvvrdX1vqtc6-1" vertex="1">
          <mxGeometry x="667.6100000000001" y="615.75" width="160" height="40" as="geometry" />
        </mxCell>
        <mxCell id="zBPXHjlnpG0N1R4RMS1n-10" value="Lv. 5" style="rounded=0;whiteSpace=wrap;html=1;strokeColor=#CCCCCC;fillColor=#999999;align=left;" parent="Bh7SMV7lsvvrdX1vqtc6-1" vertex="1">
          <mxGeometry x="668.1300000000001" y="615.75" width="78.48" height="40" as="geometry" />
        </mxCell>
        <mxCell id="zBPXHjlnpG0N1R4RMS1n-11" value="" style="rounded=0;whiteSpace=wrap;html=1;strokeColor=#CCCCCC;fillColor=#CCCCCC;" parent="Bh7SMV7lsvvrdX1vqtc6-1" vertex="1">
          <mxGeometry x="667" y="297" width="160" height="40" as="geometry" />
        </mxCell>
        <mxCell id="zBPXHjlnpG0N1R4RMS1n-12" value="Lv. 12" style="rounded=0;whiteSpace=wrap;html=1;strokeColor=#CCCCCC;fillColor=#999999;align=left;" parent="Bh7SMV7lsvvrdX1vqtc6-1" vertex="1">
          <mxGeometry x="666.52" y="297" width="193.48" height="40" as="geometry" />
        </mxCell>
        <mxCell id="zBPXHjlnpG0N1R4RMS1n-13" value="" style="rounded=0;whiteSpace=wrap;html=1;strokeColor=#CCCCCC;fillColor=#CCCCCC;" parent="Bh7SMV7lsvvrdX1vqtc6-1" vertex="1">
          <mxGeometry x="666.52" y="215" width="160" height="40" as="geometry" />
        </mxCell>
        <mxCell id="zBPXHjlnpG0N1R4RMS1n-14" value="Lv. 4" style="rounded=0;whiteSpace=wrap;html=1;strokeColor=#CCCCCC;fillColor=#999999;align=left;" parent="Bh7SMV7lsvvrdX1vqtc6-1" vertex="1">
          <mxGeometry x="667.04" y="215" width="57.96" height="40" as="geometry" />
        </mxCell>
        <mxCell id="zBPXHjlnpG0N1R4RMS1n-15" value="" style="rounded=0;whiteSpace=wrap;html=1;strokeColor=#CCCCCC;fillColor=#CCCCCC;" parent="Bh7SMV7lsvvrdX1vqtc6-1" vertex="1">
          <mxGeometry x="666.52" y="533.75" width="160" height="40" as="geometry" />
        </mxCell>
        <mxCell id="zBPXHjlnpG0N1R4RMS1n-16" value="Lv. 2" style="rounded=0;whiteSpace=wrap;html=1;strokeColor=#CCCCCC;fillColor=#999999;align=left;" parent="Bh7SMV7lsvvrdX1vqtc6-1" vertex="1">
          <mxGeometry x="667.04" y="533.75" width="38.48" height="40" as="geometry" />
        </mxCell>
        <mxCell id="zBPXHjlnpG0N1R4RMS1n-17" style="edgeStyle=orthogonalEdgeStyle;rounded=0;orthogonalLoop=1;jettySize=auto;html=1;entryX=0;entryY=0.5;entryDx=0;entryDy=0;" parent="Bh7SMV7lsvvrdX1vqtc6-1" source="zBPXHjlnpG0N1R4RMS1n-18" target="zBPXHjlnpG0N1R4RMS1n-19" edge="1">
          <mxGeometry relative="1" as="geometry" />
        </mxCell>
        <mxCell id="zBPXHjlnpG0N1R4RMS1n-18" value="基礎力" style="rounded=1;fillColor=#10739E;strokeColor=none;shadow=0;gradientColor=none;fontStyle=1;fontColor=#FFFFFF;fontSize=14;" parent="Bh7SMV7lsvvrdX1vqtc6-1" vertex="1">
          <mxGeometry x="400" y="281" width="150" height="70" as="geometry" />
        </mxCell>
        <mxCell id="zBPXHjlnpG0N1R4RMS1n-19" value="Docker" style="rounded=1;fillColor=#10739E;strokeColor=none;shadow=0;gradientColor=none;fontStyle=1;fontColor=#FFFFFF;fontSize=14;" parent="Bh7SMV7lsvvrdX1vqtc6-1" vertex="1">
          <mxGeometry x="580.3199999999999" y="282" width="69.68" height="70" as="geometry" />
        </mxCell>
        <mxCell id="zBPXHjlnpG0N1R4RMS1n-20" value="&lt;h1&gt;&lt;/h1&gt;&lt;span style=&quot;background-color: initial;&quot;&gt;&lt;div style=&quot;text-align: right;&quot;&gt;&lt;font size=&quot;1&quot;&gt;進捗バー&lt;/font&gt;&lt;/div&gt;&lt;/span&gt;" style="text;html=1;strokeColor=none;fillColor=none;spacing=5;spacingTop=-20;whiteSpace=wrap;overflow=hidden;rounded=0;shadow=0;" parent="Bh7SMV7lsvvrdX1vqtc6-1" vertex="1">
          <mxGeometry x="667.52" y="180" width="48.48" height="20" as="geometry" />
        </mxCell>
        <mxCell id="wcwhrWfLJvsCWX0Dj85q-0" value="What&#xa;is&#xa;Youki" style="rounded=1;fillColor=#10739E;strokeColor=none;shadow=0;gradientColor=none;fontStyle=1;fontColor=#FFFFFF;fontSize=14;" parent="Bh7SMV7lsvvrdX1vqtc6-1" vertex="1">
          <mxGeometry x="1400" y="601" width="70" height="70" as="geometry" />
        </mxCell>
        <mxCell id="rnyE_GOWEGs0kRWLAr_v-0" value="Docker&#xa;distroless" style="rounded=1;fillColor=#10739E;strokeColor=none;shadow=0;gradientColor=none;fontStyle=1;fontColor=#FFFFFF;fontSize=14;" parent="Bh7SMV7lsvvrdX1vqtc6-1" vertex="1">
          <mxGeometry x="1480" y="201" width="70" height="150" as="geometry" />
        </mxCell>
        <mxCell id="rkPz1xewlicb8WfL4c3t-0" value="Django&#xa;with&#xa;gunicorn" style="rounded=1;fillColor=#10739E;strokeColor=none;shadow=0;gradientColor=none;fontStyle=1;fontColor=#FFFFFF;fontSize=14;arcSize=16;" parent="Bh7SMV7lsvvrdX1vqtc6-1" vertex="1">
          <mxGeometry x="1480" y="359.38" width="70" height="150.25" as="geometry" />
        </mxCell>
        <mxCell id="HHo__-b8YiFIu3pCASbS-0" value="kuroeさん&#xa;Docker&#xa;ブログ" style="rounded=1;fillColor=#10739E;strokeColor=none;shadow=0;gradientColor=none;fontStyle=1;fontColor=#FFFFFF;fontSize=14;" parent="Bh7SMV7lsvvrdX1vqtc6-1" vertex="1">
          <mxGeometry x="1159.2" y="279" width="69.68" height="70" as="geometry" />
        </mxCell>
        <mxCell id="Ck0iX1CtV-i4qzaiQbn--0" value="Docker&#xa;distroless" style="rounded=1;fillColor=#10739E;strokeColor=none;shadow=0;gradientColor=none;fontStyle=1;fontColor=#FFFFFF;fontSize=14;" parent="Bh7SMV7lsvvrdX1vqtc6-1" vertex="1">
          <mxGeometry x="1560" y="601" width="70" height="69" as="geometry" />
        </mxCell>
        <mxCell id="goin3KBVNiRhXFpylbSx-0" value="Create&#xa;Container&#xa;From&#xa;Scruch" style="rounded=1;fillColor=#10739E;strokeColor=none;shadow=0;gradientColor=none;fontStyle=1;fontColor=#FFFFFF;fontSize=14;" parent="Bh7SMV7lsvvrdX1vqtc6-1" vertex="1">
          <mxGeometry x="1480" y="520.75" width="150" height="68" as="geometry" />
        </mxCell>
        <mxCell id="goin3KBVNiRhXFpylbSx-1" value="rootless&#xa;docker&#xa;try" style="rounded=1;fillColor=#10739E;strokeColor=none;shadow=0;gradientColor=none;fontStyle=1;fontColor=#FFFFFF;fontSize=14;" parent="Bh7SMV7lsvvrdX1vqtc6-1" vertex="1">
          <mxGeometry x="1480" y="601" width="70" height="70" as="geometry" />
        </mxCell>
        <mxCell id="OBDiVQjEH2x2G646U2dl-0" value="ECS&#xa;Cluster&#xa;Cloud&#xa;formation" style="rounded=1;fillColor=#10739E;strokeColor=none;shadow=0;gradientColor=none;fontStyle=1;fontColor=#FFFFFF;fontSize=14;" parent="Bh7SMV7lsvvrdX1vqtc6-1" vertex="1">
          <mxGeometry x="1560" y="200" width="70" height="310" as="geometry" />
        </mxCell>
        <mxCell id="OBDiVQjEH2x2G646U2dl-1" value="脆弱性0&#xa;人間" style="rounded=1;fillColor=#10739E;strokeColor=none;shadow=0;gradientColor=none;fontStyle=1;fontColor=#FFFFFF;fontSize=14;" parent="Bh7SMV7lsvvrdX1vqtc6-1" vertex="1">
          <mxGeometry x="1560" y="680" width="70" height="69" as="geometry" />
        </mxCell>
        <mxCell id="bqTH6t_CRzPVLOfNTGQf-0" value="Udemy&#xa;講師&#xa;アカウント&#xa;作成" style="rounded=1;fillColor=#10739E;strokeColor=none;shadow=0;gradientColor=none;fontStyle=1;fontColor=#FFFFFF;fontSize=14;" parent="Bh7SMV7lsvvrdX1vqtc6-1" vertex="1">
          <mxGeometry x="1640" y="200.5" width="70" height="149.5" as="geometry" />
        </mxCell>
        <mxCell id="bqTH6t_CRzPVLOfNTGQf-1" value="Docker&#xa;Udemyコース&#xa;リリース" style="rounded=1;fillColor=#10739E;strokeColor=none;shadow=0;gradientColor=none;fontStyle=1;fontColor=#FFFFFF;fontSize=14;" parent="Bh7SMV7lsvvrdX1vqtc6-1" vertex="1">
          <mxGeometry x="2840.11" y="200" width="630" height="69" as="geometry" />
        </mxCell>
        <mxCell id="kkym3UjzaJFlMXLCUieB-0" value="zenn&#xa;book&#xa;&#xa;engineer&#xa;psychology" style="rounded=1;fillColor=#6666FF;strokeColor=#6666FF;shadow=0;gradientColor=none;fontStyle=1;fontColor=#FFFFFF;fontSize=14;" parent="Bh7SMV7lsvvrdX1vqtc6-1" vertex="1">
          <mxGeometry x="1640" y="360.5" width="70" height="470.37" as="geometry" />
        </mxCell>
        <mxCell id="VtykPC_8LYrT9In81HTn-0" value="zenn&#xa;book&#xa;&#xa;engineer&#xa;psychology" style="rounded=1;fillColor=#6666FF;strokeColor=#6666FF;shadow=0;gradientColor=none;fontStyle=1;fontColor=#FFFFFF;fontSize=14;" parent="Bh7SMV7lsvvrdX1vqtc6-1" vertex="1">
          <mxGeometry x="1720" y="600" width="70" height="230.37" as="geometry" />
        </mxCell>
        <mxCell id="66MmQ5EY8uP_SE-TcrPG-0" value="大人" style="rounded=1;fillColor=#F19C99;strokeColor=none;shadow=0;gradientColor=none;fontStyle=1;fontColor=#FFFFFF;fontSize=14;" parent="Bh7SMV7lsvvrdX1vqtc6-1" vertex="1">
          <mxGeometry x="1720" y="200" width="70" height="388.75" as="geometry" />
        </mxCell>
        <mxCell id="66MmQ5EY8uP_SE-TcrPG-1" value="大人" style="rounded=1;fillColor=#F19C99;strokeColor=none;shadow=0;gradientColor=none;fontStyle=1;fontColor=#FFFFFF;fontSize=14;" parent="Bh7SMV7lsvvrdX1vqtc6-1" vertex="1">
          <mxGeometry x="1800" y="200" width="70" height="388.75" as="geometry" />
        </mxCell>
        <mxCell id="FjeknVnULqctq_wNdwAw-0" value="Open&#xa;Search" style="rounded=1;fillColor=#2E3E52;strokeColor=none;shadow=0;gradientColor=none;fontStyle=1;fontColor=#FFFFFF;fontSize=14;" parent="Bh7SMV7lsvvrdX1vqtc6-1" vertex="1">
          <mxGeometry x="1880" y="200" width="70" height="387.5" as="geometry" />
        </mxCell>
        <mxCell id="pMwYDgXReLPqg8cn-fJU-0" value="ECS&#xa;Multi&#xa;Container" style="rounded=1;fillColor=#10739E;strokeColor=none;shadow=0;gradientColor=none;fontStyle=1;fontColor=#FFFFFF;fontSize=14;" parent="Bh7SMV7lsvvrdX1vqtc6-1" vertex="1">
          <mxGeometry x="1960" y="200" width="70" height="230" as="geometry" />
        </mxCell>
        <mxCell id="e7v0zS1ufhWjI3h5iKMD-0" value="複業" style="rounded=1;fillColor=#333333;strokeColor=none;shadow=0;gradientColor=none;fontStyle=1;fontColor=#FFFFFF;fontSize=14;" parent="Bh7SMV7lsvvrdX1vqtc6-1" vertex="1">
          <mxGeometry x="2200" y="200" width="629.89" height="69" as="geometry" />
        </mxCell>
        <mxCell id="c4h0luWL1eRa8xh-gyWp-1" value="開業届" style="rounded=1;fillColor=#F19C99;strokeColor=none;shadow=0;gradientColor=none;fontStyle=1;fontColor=#FFFFFF;fontSize=14;" parent="Bh7SMV7lsvvrdX1vqtc6-1" vertex="1">
          <mxGeometry x="1879.89" y="-120" width="310" height="70" as="geometry" />
        </mxCell>
        <mxCell id="c4h0luWL1eRa8xh-gyWp-2" value="ココナラ&#xa;登録" style="rounded=1;fillColor=#333333;strokeColor=none;shadow=0;gradientColor=none;fontStyle=1;fontColor=#FFFFFF;fontSize=14;" parent="Bh7SMV7lsvvrdX1vqtc6-1" vertex="1">
          <mxGeometry x="1879.89" y="599" width="70.11" height="69" as="geometry" />
        </mxCell>
        <mxCell id="BCTeM3Qxspm3P5T-Rhqx-2" style="edgeStyle=orthogonalEdgeStyle;rounded=0;orthogonalLoop=1;jettySize=auto;html=1;" parent="Bh7SMV7lsvvrdX1vqtc6-1" source="BCTeM3Qxspm3P5T-Rhqx-0" target="BCTeM3Qxspm3P5T-Rhqx-1" edge="1">
          <mxGeometry relative="1" as="geometry" />
        </mxCell>
        <mxCell id="BCTeM3Qxspm3P5T-Rhqx-0" value="人間としての&#xa;魅力をあげること" style="rounded=1;fillColor=#6666FF;strokeColor=#6666FF;shadow=0;gradientColor=none;fontStyle=1;fontColor=#FFFFFF;fontSize=14;" parent="Bh7SMV7lsvvrdX1vqtc6-1" vertex="1">
          <mxGeometry x="400.76" y="680" width="150" height="70" as="geometry" />
        </mxCell>
        <mxCell id="BCTeM3Qxspm3P5T-Rhqx-1" value="人間力" style="rounded=1;fillColor=#6666FF;strokeColor=#6666FF;shadow=0;gradientColor=none;fontStyle=1;fontColor=#FFFFFF;fontSize=14;" parent="Bh7SMV7lsvvrdX1vqtc6-1" vertex="1">
          <mxGeometry x="578.01" y="680" width="72.75" height="70" as="geometry" />
        </mxCell>
        <mxCell id="nxaWoVZWUnP83pNudGsD-0" value="Open&#xa;Search" style="rounded=1;fillColor=#2E3E52;strokeColor=none;shadow=0;gradientColor=none;fontStyle=1;fontColor=#FFFFFF;fontSize=14;" parent="Bh7SMV7lsvvrdX1vqtc6-1" vertex="1">
          <mxGeometry x="2040" y="198.38" width="70" height="231.62" as="geometry" />
        </mxCell>
        <mxCell id="zyk7fm1a701r0AlnyBT6-0" style="edgeStyle=orthogonalEdgeStyle;rounded=0;orthogonalLoop=1;jettySize=auto;html=1;entryX=0;entryY=0.5;entryDx=0;entryDy=0;" parent="Bh7SMV7lsvvrdX1vqtc6-1" source="bq7IDlNxe4QY1jKf78TL-0" target="_mglhrFurNbZBfyeyvIG-1" edge="1">
          <mxGeometry relative="1" as="geometry" />
        </mxCell>
        <mxCell id="bq7IDlNxe4QY1jKf78TL-0" value="AWS" style="rounded=1;fillColor=#2E3E52;strokeColor=#232F3E;shadow=0;gradientColor=none;fontStyle=1;fontColor=#FFFFFF;fontSize=14;" parent="Bh7SMV7lsvvrdX1vqtc6-1" vertex="1">
          <mxGeometry x="400.04999999999995" y="440" width="150" height="70" as="geometry" />
        </mxCell>
        <mxCell id="rbuCsb3qMlLkSIBxqQ3k-1" value="金を稼ぐ" style="rounded=1;fillColor=#333333;strokeColor=none;shadow=0;gradientColor=none;fontStyle=1;fontColor=#FFFFFF;fontSize=14;" parent="Bh7SMV7lsvvrdX1vqtc6-1" vertex="1">
          <mxGeometry x="400" y="760" width="150" height="69" as="geometry" />
        </mxCell>
        <mxCell id="orpI2Ms2HJTnG1h-H57j-0" value="AWS&#xa;CF&#xa;WAF&#xa;fix" style="rounded=1;fillColor=#2E3E52;strokeColor=#232F3E;shadow=0;gradientColor=none;fontStyle=1;fontColor=#FFFFFF;fontSize=14;" parent="Bh7SMV7lsvvrdX1vqtc6-1" vertex="1">
          <mxGeometry x="2040" y="439.63" width="70" height="70" as="geometry" />
        </mxCell>
        <mxCell id="orpI2Ms2HJTnG1h-H57j-1" value="Linux" style="rounded=1;fillColor=#004C99;strokeColor=none;shadow=0;gradientColor=none;fontStyle=1;fontColor=#FFFFFF;fontSize=14;" parent="Bh7SMV7lsvvrdX1vqtc6-1" vertex="1">
          <mxGeometry x="578.36" y="360" width="71.64" height="70" as="geometry" />
        </mxCell>
        <mxCell id="zyk7fm1a701r0AlnyBT6-1" style="edgeStyle=orthogonalEdgeStyle;rounded=0;orthogonalLoop=1;jettySize=auto;html=1;entryX=0;entryY=0.5;entryDx=0;entryDy=0;" parent="Bh7SMV7lsvvrdX1vqtc6-1" source="_mglhrFurNbZBfyeyvIG-0" target="orpI2Ms2HJTnG1h-H57j-1" edge="1">
          <mxGeometry relative="1" as="geometry" />
        </mxCell>
        <mxCell id="_mglhrFurNbZBfyeyvIG-0" value="コンピューターの&#xa;全て" style="rounded=1;fillColor=#004C99;strokeColor=none;shadow=0;gradientColor=none;fontStyle=1;fontColor=#FFFFFF;fontSize=14;" parent="Bh7SMV7lsvvrdX1vqtc6-1" vertex="1">
          <mxGeometry x="400.05" y="360" width="150" height="70" as="geometry" />
        </mxCell>
        <mxCell id="_mglhrFurNbZBfyeyvIG-1" value="AWS" style="rounded=1;fillColor=#2E3E52;strokeColor=#232F3E;shadow=0;gradientColor=none;fontStyle=1;fontColor=#FFFFFF;fontSize=14;" parent="Bh7SMV7lsvvrdX1vqtc6-1" vertex="1">
          <mxGeometry x="578.36" y="439.63" width="71.64" height="70" as="geometry" />
        </mxCell>
        <mxCell id="RYObmb5VyEX7E3XObbrr-0" value="" style="rounded=0;whiteSpace=wrap;html=1;strokeColor=#CCCCCC;fillColor=#CCCCCC;" parent="Bh7SMV7lsvvrdX1vqtc6-1" vertex="1">
          <mxGeometry x="666.52" y="457" width="160" height="40" as="geometry" />
        </mxCell>
        <mxCell id="RYObmb5VyEX7E3XObbrr-1" value="Lv. 4" style="rounded=0;whiteSpace=wrap;html=1;strokeColor=#CCCCCC;fillColor=#999999;align=left;" parent="Bh7SMV7lsvvrdX1vqtc6-1" vertex="1">
          <mxGeometry x="667.04" y="457" width="57.96" height="40" as="geometry" />
        </mxCell>
        <mxCell id="zyk7fm1a701r0AlnyBT6-2" value="" style="rounded=0;whiteSpace=wrap;html=1;strokeColor=#CCCCCC;fillColor=#CCCCCC;" parent="Bh7SMV7lsvvrdX1vqtc6-1" vertex="1">
          <mxGeometry x="667.52" y="373.75" width="160" height="40" as="geometry" />
        </mxCell>
        <mxCell id="zyk7fm1a701r0AlnyBT6-3" value="Lv. 2" style="rounded=0;whiteSpace=wrap;html=1;strokeColor=#CCCCCC;fillColor=#999999;align=left;" parent="Bh7SMV7lsvvrdX1vqtc6-1" vertex="1">
          <mxGeometry x="668.04" y="373.75" width="38.48" height="40" as="geometry" />
        </mxCell>
        <mxCell id="bFFCeRdgSG6eIYRwJMkj-0" value="副作用を&#xa;減らす" style="rounded=1;fillColor=#66B2FF;strokeColor=none;shadow=0;gradientColor=none;fontStyle=1;fontColor=#FFFFFF;fontSize=14;" parent="Bh7SMV7lsvvrdX1vqtc6-1" vertex="1">
          <mxGeometry x="200" y="199" width="150" height="70" as="geometry" />
        </mxCell>
        <mxCell id="bFFCeRdgSG6eIYRwJMkj-1" value="&lt;h1&gt;&lt;/h1&gt;&lt;span style=&quot;background-color: initial;&quot;&gt;&lt;div style=&quot;text-align: right;&quot;&gt;&lt;font size=&quot;1&quot;&gt;バックログアイテム&lt;/font&gt;&lt;/div&gt;&lt;/span&gt;" style="text;html=1;strokeColor=none;fillColor=none;spacing=5;spacingTop=-20;whiteSpace=wrap;overflow=hidden;rounded=0;shadow=0;" parent="Bh7SMV7lsvvrdX1vqtc6-1" vertex="1">
          <mxGeometry x="200" y="170" width="140" height="20" as="geometry" />
        </mxCell>
        <mxCell id="bFFCeRdgSG6eIYRwJMkj-2" value="会社の副業に応募する" style="rounded=1;fillColor=#333333;strokeColor=none;shadow=0;gradientColor=none;fontStyle=1;fontColor=#FFFFFF;fontSize=14;" parent="Bh7SMV7lsvvrdX1vqtc6-1" vertex="1">
          <mxGeometry x="200" y="283" width="150" height="69" as="geometry" />
        </mxCell>
        <mxCell id="bFFCeRdgSG6eIYRwJMkj-3" value="&lt;h1&gt;&lt;/h1&gt;&lt;span style=&quot;background-color: initial;&quot;&gt;&lt;div style=&quot;text-align: right;&quot;&gt;&lt;font size=&quot;1&quot;&gt;リファレンスストーリー&lt;/font&gt;&lt;/div&gt;&lt;/span&gt;" style="text;html=1;strokeColor=none;fillColor=none;spacing=5;spacingTop=-20;whiteSpace=wrap;overflow=hidden;rounded=0;shadow=0;" parent="Bh7SMV7lsvvrdX1vqtc6-1" vertex="1">
          <mxGeometry x="40" y="170" width="140" height="20" as="geometry" />
        </mxCell>
        <mxCell id="bFFCeRdgSG6eIYRwJMkj-4" value="Django&#xa;with&#xa;gunicorn" style="rounded=1;fillColor=#10739E;strokeColor=none;shadow=0;gradientColor=none;fontStyle=1;fontColor=#FFFFFF;fontSize=14;arcSize=16;" parent="Bh7SMV7lsvvrdX1vqtc6-1" vertex="1">
          <mxGeometry x="40" y="198.38" width="70" height="150.25" as="geometry" />
        </mxCell>
        <mxCell id="bFFCeRdgSG6eIYRwJMkj-5" value="サービス&#xa;カタログ" style="rounded=1;fillColor=#10739E;strokeColor=none;shadow=0;gradientColor=none;fontStyle=1;fontColor=#FFFFFF;fontSize=14;arcSize=16;" parent="Bh7SMV7lsvvrdX1vqtc6-1" vertex="1">
          <mxGeometry x="120" y="198.38" width="70" height="150.25" as="geometry" />
        </mxCell>
        <mxCell id="CJGJ9xjIOzubEeCd7xv0-0" value="&lt;h1&gt;&lt;/h1&gt;&lt;span style=&quot;background-color: initial;&quot;&gt;&lt;div style=&quot;text-align: right;&quot;&gt;&lt;font size=&quot;1&quot;&gt;三ヶ月単位で、やるべきことスプリントゴールを決める。そのスプリントゴールに向かって&lt;/font&gt;&lt;/div&gt;&lt;div style=&quot;text-align: right;&quot;&gt;&lt;font size=&quot;1&quot;&gt;作業をすることで、人生の目標を達成することができる&lt;/font&gt;&lt;/div&gt;&lt;/span&gt;" style="text;html=1;strokeColor=none;fillColor=none;spacing=5;spacingTop=-20;whiteSpace=wrap;overflow=hidden;rounded=0;shadow=0;" parent="Bh7SMV7lsvvrdX1vqtc6-1" vertex="1">
          <mxGeometry x="40" y="383.75" width="140" height="126.25" as="geometry" />
        </mxCell>
        <mxCell id="CJGJ9xjIOzubEeCd7xv0-1" value="&lt;h1&gt;年間目標：現金化（これまでの仕事から、金を生み出す）&lt;/h1&gt;" style="text;html=1;strokeColor=none;fillColor=#E6E6E6;spacing=5;spacingTop=-20;whiteSpace=wrap;overflow=hidden;rounded=0;shadow=0;align=center;" parent="Bh7SMV7lsvvrdX1vqtc6-1" vertex="1">
          <mxGeometry x="1879.8899999999999" y="82" width="950" height="36" as="geometry" />
        </mxCell>
        <mxCell id="CJGJ9xjIOzubEeCd7xv0-2" value="&lt;h1&gt;&lt;/h1&gt;&lt;span style=&quot;background-color: initial;&quot;&gt;&lt;div style=&quot;&quot;&gt;&lt;font size=&quot;1&quot;&gt;これまでは大量の知識をストックすることに注力する人生であった。&lt;/font&gt;&lt;/div&gt;&lt;div style=&quot;&quot;&gt;&lt;font size=&quot;1&quot;&gt;そして、知識をストックしていけば自然と技術力も上がり、成果も生み出せると考えていた。&lt;/font&gt;&lt;/div&gt;&lt;div style=&quot;&quot;&gt;&lt;font size=&quot;1&quot;&gt;これからはそれらの知識を換金していき、元をとりにいく・&lt;/font&gt;&lt;/div&gt;&lt;/span&gt;" style="text;html=1;strokeColor=none;fillColor=none;spacing=5;spacingTop=-20;whiteSpace=wrap;overflow=hidden;rounded=0;shadow=0;" parent="Bh7SMV7lsvvrdX1vqtc6-1" vertex="1">
          <mxGeometry x="1880" y="-40" width="600" height="110" as="geometry" />
        </mxCell>
        <mxCell id="CJGJ9xjIOzubEeCd7xv0-3" value="Flame&#xa;value&#xa;&#xa;ブログ化" style="rounded=1;fillColor=#333333;strokeColor=none;shadow=0;gradientColor=none;fontStyle=1;fontColor=#FFFFFF;fontSize=14;" parent="Bh7SMV7lsvvrdX1vqtc6-1" vertex="1">
          <mxGeometry x="1960" y="440.5" width="70" height="149.5" as="geometry" />
        </mxCell>
        <mxCell id="CJGJ9xjIOzubEeCd7xv0-4" value="crowd&#xa;works&#xa;登録" style="rounded=1;fillColor=#333333;strokeColor=none;shadow=0;gradientColor=none;fontStyle=1;fontColor=#FFFFFF;fontSize=14;" parent="Bh7SMV7lsvvrdX1vqtc6-1" vertex="1">
          <mxGeometry x="1879.89" y="679" width="70.11" height="69" as="geometry" />
        </mxCell>
        <mxCell id="CJGJ9xjIOzubEeCd7xv0-5" value="市場調査" style="rounded=1;fillColor=#333333;strokeColor=none;shadow=0;gradientColor=none;fontStyle=1;fontColor=#FFFFFF;fontSize=14;" parent="Bh7SMV7lsvvrdX1vqtc6-1" vertex="1">
          <mxGeometry x="1879.89" y="-200" width="309.89" height="69" as="geometry" />
        </mxCell>
        <mxCell id="CJGJ9xjIOzubEeCd7xv0-6" value="何かしらの受注を得る" style="rounded=1;fillColor=#333333;strokeColor=none;shadow=0;gradientColor=none;fontStyle=1;fontColor=#FFFFFF;fontSize=14;" parent="Bh7SMV7lsvvrdX1vqtc6-1" vertex="1">
          <mxGeometry x="2200" y="-120" width="310" height="69" as="geometry" />
        </mxCell>
        <mxCell id="CJGJ9xjIOzubEeCd7xv0-7" value="blog&#xa;situation&#xa;search" style="rounded=1;fillColor=#333333;strokeColor=none;shadow=0;gradientColor=none;fontStyle=1;fontColor=#FFFFFF;fontSize=14;" parent="Bh7SMV7lsvvrdX1vqtc6-1" vertex="1">
          <mxGeometry x="2119.89" y="279" width="70.11" height="69" as="geometry" />
        </mxCell>
        <mxCell id="vHEMnF0n2SaNhhg8VbZU-3" value="hatena&#xa;blog&#xa;CICD" style="rounded=1;fillColor=#2E3E52;strokeColor=#232F3E;shadow=0;gradientColor=none;fontStyle=1;fontColor=#FFFFFF;fontSize=14;" parent="Bh7SMV7lsvvrdX1vqtc6-1" vertex="1">
          <mxGeometry x="2038.25" y="601" width="71.64" height="149.5" as="geometry" />
        </mxCell>
        <mxCell id="OnaLRzQhGEgSti7BbpeO-1" value="refactoring&#xa;atach&#xa;api" style="rounded=1;fillColor=#333333;strokeColor=none;shadow=0;gradientColor=none;fontStyle=1;fontColor=#FFFFFF;fontSize=14;" parent="Bh7SMV7lsvvrdX1vqtc6-1" vertex="1">
          <mxGeometry x="2040" y="522" width="69.89" height="69" as="geometry" />
        </mxCell>
        <mxCell id="qzdjB-W2LdewoaEbzD0Z-0" value="agile&#xa;organize&#xa;content" style="rounded=1;fillColor=#333333;strokeColor=none;shadow=0;gradientColor=none;fontStyle=1;fontColor=#FFFFFF;fontSize=14;" parent="Bh7SMV7lsvvrdX1vqtc6-1" vertex="1">
          <mxGeometry x="1879.89" y="-280" width="150.11" height="69" as="geometry" />
        </mxCell>
        <mxCell id="qzdjB-W2LdewoaEbzD0Z-1" value="Architect&#xa;blog&#xa;no leaks" style="rounded=1;fillColor=#333333;strokeColor=none;shadow=0;gradientColor=none;fontStyle=1;fontColor=#FFFFFF;fontSize=14;" parent="Bh7SMV7lsvvrdX1vqtc6-1" vertex="1">
          <mxGeometry x="2119.84" y="199" width="70.16" height="69" as="geometry" />
        </mxCell>
        <mxCell id="qzdjB-W2LdewoaEbzD0Z-2" value="hatena SQL&#xa;no leaks&#xa;and organize content" style="rounded=1;fillColor=#333333;strokeColor=none;shadow=0;gradientColor=none;fontStyle=1;fontColor=#FFFFFF;fontSize=14;" parent="Bh7SMV7lsvvrdX1vqtc6-1" vertex="1">
          <mxGeometry x="2840.11" y="-120" width="390" height="69" as="geometry" />
        </mxCell>
        <mxCell id="FvhjM-UMrIHRwDnvG5Qk-1" value="Architect&#xa;organize content" style="rounded=1;fillColor=#333333;strokeColor=none;shadow=0;gradientColor=none;fontStyle=1;fontColor=#FFFFFF;fontSize=14;" parent="Bh7SMV7lsvvrdX1vqtc6-1" vertex="1">
          <mxGeometry x="2840.11" y="-200" width="310" height="69" as="geometry" />
        </mxCell>
        <mxCell id="FvhjM-UMrIHRwDnvG5Qk-2" value=" AWS&#xa;サービスカタログ&#xa;agile" style="rounded=1;fillColor=#2E3E52;strokeColor=none;shadow=0;gradientColor=none;fontStyle=1;fontColor=#FFFFFF;fontSize=14;" parent="Bh7SMV7lsvvrdX1vqtc6-1" vertex="1">
          <mxGeometry x="2199.89" y="279" width="310.22" height="72.62" as="geometry" />
        </mxCell>
        <mxCell id="2TB5Tsj4iu3cfr1h1QYa-0" value="blog&#xa;pv, entry&#xa;search.py" style="rounded=1;fillColor=#333333;strokeColor=none;shadow=0;gradientColor=none;fontStyle=1;fontColor=#FFFFFF;fontSize=14;" vertex="1" parent="Bh7SMV7lsvvrdX1vqtc6-1">
          <mxGeometry x="2039.89" y="-280" width="150.11" height="69" as="geometry" />
        </mxCell>
      </root>
    </mxGraphModel>
  </diagram>
  <diagram name="20240429" id="W_7P5e1TE54jH6IneF1L">
    <mxGraphModel dx="1674" dy="784" grid="1" gridSize="10" guides="1" tooltips="1" connect="1" arrows="1" fold="1" page="1" pageScale="1" pageWidth="827" pageHeight="1169" math="0" shadow="0">
      <root>
        <mxCell id="mmjsGmUXRZGhKli4uvX5-0" />
        <mxCell id="mmjsGmUXRZGhKli4uvX5-1" parent="mmjsGmUXRZGhKli4uvX5-0" />
        <mxCell id="mmjsGmUXRZGhKli4uvX5-2" value="火" style="text;html=1;strokeColor=none;fillColor=none;align=center;verticalAlign=middle;whiteSpace=wrap;rounded=0;shadow=0;" parent="mmjsGmUXRZGhKli4uvX5-1" vertex="1">
          <mxGeometry x="99" y="75" width="60" height="30" as="geometry" />
        </mxCell>
        <mxCell id="mmjsGmUXRZGhKli4uvX5-3" value="水" style="text;html=1;strokeColor=none;fillColor=none;align=center;verticalAlign=middle;whiteSpace=wrap;rounded=0;shadow=0;" parent="mmjsGmUXRZGhKli4uvX5-1" vertex="1">
          <mxGeometry x="179" y="75" width="60" height="30" as="geometry" />
        </mxCell>
        <mxCell id="mmjsGmUXRZGhKli4uvX5-4" value="木" style="text;html=1;strokeColor=none;fillColor=none;align=center;verticalAlign=middle;whiteSpace=wrap;rounded=0;shadow=0;" parent="mmjsGmUXRZGhKli4uvX5-1" vertex="1">
          <mxGeometry x="259" y="75" width="60" height="30" as="geometry" />
        </mxCell>
        <mxCell id="mmjsGmUXRZGhKli4uvX5-5" value="金" style="text;html=1;strokeColor=none;fillColor=none;align=center;verticalAlign=middle;whiteSpace=wrap;rounded=0;shadow=0;" parent="mmjsGmUXRZGhKli4uvX5-1" vertex="1">
          <mxGeometry x="339" y="75" width="60" height="30" as="geometry" />
        </mxCell>
        <mxCell id="mmjsGmUXRZGhKli4uvX5-6" value="土" style="text;html=1;strokeColor=none;fillColor=none;align=center;verticalAlign=middle;whiteSpace=wrap;rounded=0;shadow=0;" parent="mmjsGmUXRZGhKli4uvX5-1" vertex="1">
          <mxGeometry x="419" y="75" width="60" height="30" as="geometry" />
        </mxCell>
        <mxCell id="mmjsGmUXRZGhKli4uvX5-7" value="日" style="text;html=1;strokeColor=none;fillColor=none;align=center;verticalAlign=middle;whiteSpace=wrap;rounded=0;shadow=0;" parent="mmjsGmUXRZGhKli4uvX5-1" vertex="1">
          <mxGeometry x="499" y="75" width="60" height="30" as="geometry" />
        </mxCell>
        <mxCell id="mmjsGmUXRZGhKli4uvX5-8" value="月" style="text;html=1;strokeColor=none;fillColor=none;align=center;verticalAlign=middle;whiteSpace=wrap;rounded=0;shadow=0;" parent="mmjsGmUXRZGhKli4uvX5-1" vertex="1">
          <mxGeometry x="19" y="75" width="60" height="30" as="geometry" />
        </mxCell>
        <mxCell id="mmjsGmUXRZGhKli4uvX5-9" value="&lt;h1&gt;テーマ：人事を尽くして天命を待つ&lt;/h1&gt;" style="text;html=1;strokeColor=none;fillColor=none;spacing=5;spacingTop=-20;whiteSpace=wrap;overflow=hidden;rounded=0;shadow=0;" parent="mmjsGmUXRZGhKli4uvX5-1" vertex="1">
          <mxGeometry x="40" y="40" width="480" height="40" as="geometry" />
        </mxCell>
        <mxCell id="mmjsGmUXRZGhKli4uvX5-10" value="" style="endArrow=classic;html=1;rounded=0;shadow=0;" parent="mmjsGmUXRZGhKli4uvX5-1" edge="1">
          <mxGeometry width="50" height="50" relative="1" as="geometry">
            <mxPoint x="41" y="110" as="sourcePoint" />
            <mxPoint x="600" y="110" as="targetPoint" />
          </mxGeometry>
        </mxCell>
        <mxCell id="mmjsGmUXRZGhKli4uvX5-11" value="&lt;h1&gt;&lt;/h1&gt;&lt;h1 style=&quot;border-color: var(--border-color);&quot;&gt;今週の振り返り&lt;/h1&gt;【現状】&lt;span style=&quot;background-color: initial;&quot;&gt;&lt;br&gt;&lt;/span&gt;&lt;div&gt;&lt;br&gt;&lt;/div&gt;&lt;div&gt;&lt;br&gt;&lt;/div&gt;&lt;div&gt;&lt;br&gt;&lt;/div&gt;" style="text;html=1;strokeColor=none;fillColor=none;spacing=5;spacingTop=-20;whiteSpace=wrap;overflow=hidden;rounded=0;shadow=0;" parent="mmjsGmUXRZGhKli4uvX5-1" vertex="1">
          <mxGeometry x="610" y="200" width="190" height="560" as="geometry" />
        </mxCell>
        <mxCell id="mmjsGmUXRZGhKli4uvX5-12" value="&lt;h1&gt;&lt;/h1&gt;&lt;h1 style=&quot;border-color: var(--border-color);&quot;&gt;やることリスト&lt;/h1&gt;&lt;div&gt;・PSY&lt;/div&gt;" style="text;html=1;strokeColor=none;fillColor=none;spacing=5;spacingTop=-20;whiteSpace=wrap;overflow=hidden;rounded=0;shadow=0;" parent="mmjsGmUXRZGhKli4uvX5-1" vertex="1">
          <mxGeometry x="610" y="40" width="190" height="160" as="geometry" />
        </mxCell>
        <mxCell id="mmjsGmUXRZGhKli4uvX5-13" value="MTG準備" style="rounded=1;fillColor=#F19C99;strokeColor=none;shadow=0;gradientColor=none;fontStyle=1;fontColor=#FFFFFF;fontSize=14;" parent="mmjsGmUXRZGhKli4uvX5-1" vertex="1">
          <mxGeometry x="40" y="120" width="70" height="230" as="geometry" />
        </mxCell>
        <mxCell id="mmjsGmUXRZGhKli4uvX5-14" value="事務処理" style="rounded=1;fillColor=#F19C99;strokeColor=none;shadow=0;gradientColor=none;fontStyle=1;fontColor=#FFFFFF;fontSize=14;" parent="mmjsGmUXRZGhKli4uvX5-1" vertex="1">
          <mxGeometry x="120" y="120" width="70" height="150" as="geometry" />
        </mxCell>
        <mxCell id="mmjsGmUXRZGhKli4uvX5-17" value="Open&#xa;search&#xa;&#xa;primary&#xa;id" style="rounded=1;fillColor=#2E3E52;strokeColor=#232F3E;shadow=0;gradientColor=none;fontStyle=1;fontColor=#FFFFFF;fontSize=14;" parent="mmjsGmUXRZGhKli4uvX5-1" vertex="1">
          <mxGeometry x="200" y="120" width="70" height="229" as="geometry" />
        </mxCell>
        <mxCell id="JAcDAGpPGNjnSt7H0TE5-0" value="スクラム&#xa;研修&#xa;受験" style="rounded=1;fillColor=#2E3E52;strokeColor=#232F3E;shadow=0;gradientColor=none;fontStyle=1;fontColor=#FFFFFF;fontSize=14;" vertex="1" parent="mmjsGmUXRZGhKli4uvX5-1">
          <mxGeometry x="120" y="280" width="70" height="70" as="geometry" />
        </mxCell>
      </root>
    </mxGraphModel>
  </diagram>
  <diagram name="20240422" id="T5gSQF7ivlWrojVcbaOC">
    <mxGraphModel dx="1194" dy="581" grid="1" gridSize="10" guides="1" tooltips="1" connect="1" arrows="1" fold="1" page="1" pageScale="1" pageWidth="827" pageHeight="1169" math="0" shadow="0">
      <root>
        <mxCell id="dp7smig5iPpN__WvHa1W-0" />
        <mxCell id="dp7smig5iPpN__WvHa1W-1" parent="dp7smig5iPpN__WvHa1W-0" />
        <mxCell id="dp7smig5iPpN__WvHa1W-2" value="火" style="text;html=1;strokeColor=none;fillColor=none;align=center;verticalAlign=middle;whiteSpace=wrap;rounded=0;shadow=0;" parent="dp7smig5iPpN__WvHa1W-1" vertex="1">
          <mxGeometry x="99" y="75" width="60" height="30" as="geometry" />
        </mxCell>
        <mxCell id="dp7smig5iPpN__WvHa1W-3" value="水" style="text;html=1;strokeColor=none;fillColor=none;align=center;verticalAlign=middle;whiteSpace=wrap;rounded=0;shadow=0;" parent="dp7smig5iPpN__WvHa1W-1" vertex="1">
          <mxGeometry x="179" y="75" width="60" height="30" as="geometry" />
        </mxCell>
        <mxCell id="dp7smig5iPpN__WvHa1W-4" value="木" style="text;html=1;strokeColor=none;fillColor=none;align=center;verticalAlign=middle;whiteSpace=wrap;rounded=0;shadow=0;" parent="dp7smig5iPpN__WvHa1W-1" vertex="1">
          <mxGeometry x="259" y="75" width="60" height="30" as="geometry" />
        </mxCell>
        <mxCell id="dp7smig5iPpN__WvHa1W-5" value="金" style="text;html=1;strokeColor=none;fillColor=none;align=center;verticalAlign=middle;whiteSpace=wrap;rounded=0;shadow=0;" parent="dp7smig5iPpN__WvHa1W-1" vertex="1">
          <mxGeometry x="339" y="75" width="60" height="30" as="geometry" />
        </mxCell>
        <mxCell id="dp7smig5iPpN__WvHa1W-6" value="土" style="text;html=1;strokeColor=none;fillColor=none;align=center;verticalAlign=middle;whiteSpace=wrap;rounded=0;shadow=0;" parent="dp7smig5iPpN__WvHa1W-1" vertex="1">
          <mxGeometry x="419" y="75" width="60" height="30" as="geometry" />
        </mxCell>
        <mxCell id="dp7smig5iPpN__WvHa1W-7" value="日" style="text;html=1;strokeColor=none;fillColor=none;align=center;verticalAlign=middle;whiteSpace=wrap;rounded=0;shadow=0;" parent="dp7smig5iPpN__WvHa1W-1" vertex="1">
          <mxGeometry x="499" y="75" width="60" height="30" as="geometry" />
        </mxCell>
        <mxCell id="dp7smig5iPpN__WvHa1W-8" value="月" style="text;html=1;strokeColor=none;fillColor=none;align=center;verticalAlign=middle;whiteSpace=wrap;rounded=0;shadow=0;" parent="dp7smig5iPpN__WvHa1W-1" vertex="1">
          <mxGeometry x="19" y="75" width="60" height="30" as="geometry" />
        </mxCell>
        <mxCell id="dp7smig5iPpN__WvHa1W-9" value="&lt;h1&gt;テーマ：ECS&lt;/h1&gt;" style="text;html=1;strokeColor=none;fillColor=none;spacing=5;spacingTop=-20;whiteSpace=wrap;overflow=hidden;rounded=0;shadow=0;" parent="dp7smig5iPpN__WvHa1W-1" vertex="1">
          <mxGeometry x="40" y="40" width="480" height="40" as="geometry" />
        </mxCell>
        <mxCell id="dp7smig5iPpN__WvHa1W-10" value="" style="endArrow=classic;html=1;rounded=0;shadow=0;" parent="dp7smig5iPpN__WvHa1W-1" edge="1">
          <mxGeometry width="50" height="50" relative="1" as="geometry">
            <mxPoint x="41" y="110" as="sourcePoint" />
            <mxPoint x="600" y="110" as="targetPoint" />
          </mxGeometry>
        </mxCell>
        <mxCell id="dp7smig5iPpN__WvHa1W-11" value="&lt;h1&gt;&lt;/h1&gt;&lt;h1 style=&quot;border-color: var(--border-color);&quot;&gt;今週の振り返り&lt;/h1&gt;【現状】&lt;span style=&quot;background-color: initial;&quot;&gt;&lt;br&gt;&lt;/span&gt;&lt;div&gt;&lt;br&gt;&lt;/div&gt;&lt;div&gt;&lt;br&gt;&lt;/div&gt;&lt;div&gt;&lt;br&gt;&lt;/div&gt;" style="text;html=1;strokeColor=none;fillColor=none;spacing=5;spacingTop=-20;whiteSpace=wrap;overflow=hidden;rounded=0;shadow=0;" parent="dp7smig5iPpN__WvHa1W-1" vertex="1">
          <mxGeometry x="610" y="200" width="190" height="560" as="geometry" />
        </mxCell>
        <mxCell id="dp7smig5iPpN__WvHa1W-12" value="&lt;h1&gt;&lt;/h1&gt;&lt;h1 style=&quot;border-color: var(--border-color);&quot;&gt;やることリスト&lt;/h1&gt;&lt;div&gt;・PSY&lt;/div&gt;" style="text;html=1;strokeColor=none;fillColor=none;spacing=5;spacingTop=-20;whiteSpace=wrap;overflow=hidden;rounded=0;shadow=0;" parent="dp7smig5iPpN__WvHa1W-1" vertex="1">
          <mxGeometry x="610" y="40" width="190" height="160" as="geometry" />
        </mxCell>
        <mxCell id="LOzOzjvfhxvSWDoSEuFs-0" value="scrum&#xa;event" style="rounded=1;fillColor=#F19C99;strokeColor=none;shadow=0;gradientColor=none;fontStyle=1;fontColor=#FFFFFF;fontSize=14;" parent="dp7smig5iPpN__WvHa1W-1" vertex="1">
          <mxGeometry x="360" y="121" width="70" height="389" as="geometry" />
        </mxCell>
        <mxCell id="LOzOzjvfhxvSWDoSEuFs-1" value="scrum&#xa;event" style="rounded=1;fillColor=#F19C99;strokeColor=none;shadow=0;gradientColor=none;fontStyle=1;fontColor=#FFFFFF;fontSize=14;" parent="dp7smig5iPpN__WvHa1W-1" vertex="1">
          <mxGeometry x="280" y="120" width="70" height="389" as="geometry" />
        </mxCell>
        <mxCell id="r6-71YH5ft_gou4BuDyC-0" value="目標&#xa;設定" style="rounded=1;fillColor=#333333;strokeColor=none;shadow=0;gradientColor=none;fontStyle=1;fontColor=#FFFFFF;fontSize=14;" parent="dp7smig5iPpN__WvHa1W-1" vertex="1">
          <mxGeometry x="40" y="121" width="70" height="229" as="geometry" />
        </mxCell>
        <mxCell id="nSSZOtDRVlqUB6Qu3s8u-0" value="Pair&#xa;Program&#xa;&#xa;Django&#xa;Coding" style="rounded=1;fillColor=#66B2FF;strokeColor=#99CCFF;shadow=0;gradientColor=none;fontStyle=1;fontColor=#FFFFFF;fontSize=14;" parent="dp7smig5iPpN__WvHa1W-1" vertex="1">
          <mxGeometry x="120" y="520" width="70" height="230" as="geometry" />
        </mxCell>
        <mxCell id="TAQLbO66vLg0ffkGt6rT-0" value="Open&#xa;search&#xa;&#xa;primary&#xa;id" style="rounded=1;fillColor=#2E3E52;strokeColor=#232F3E;shadow=0;gradientColor=none;fontStyle=1;fontColor=#FFFFFF;fontSize=14;" parent="dp7smig5iPpN__WvHa1W-1" vertex="1">
          <mxGeometry x="120" y="121" width="70" height="229" as="geometry" />
        </mxCell>
        <mxCell id="TAQLbO66vLg0ffkGt6rT-1" value="AWS&#xa;CF&#xa;WAF&#xa;fix" style="rounded=1;fillColor=#2E3E52;strokeColor=#232F3E;shadow=0;gradientColor=none;fontStyle=1;fontColor=#FFFFFF;fontSize=14;" parent="dp7smig5iPpN__WvHa1W-1" vertex="1">
          <mxGeometry x="120" y="360" width="70" height="150" as="geometry" />
        </mxCell>
        <mxCell id="a3rk_B5-6g-4l_REH6zL-0" value="Pair&#xa;Program&#xa;&#xa;React&#xa;Coding" style="rounded=1;fillColor=#66B2FF;strokeColor=#99CCFF;shadow=0;gradientColor=none;fontStyle=1;fontColor=#FFFFFF;fontSize=14;" parent="dp7smig5iPpN__WvHa1W-1" vertex="1">
          <mxGeometry x="200" y="520" width="70" height="230" as="geometry" />
        </mxCell>
        <mxCell id="dOhBbVRT-rrJ0u-c9p0f-0" value="OpnSearch&#xa;Words" style="rounded=1;fillColor=#2E3E52;strokeColor=#232F3E;shadow=0;gradientColor=none;fontStyle=1;fontColor=#FFFFFF;fontSize=14;" parent="dp7smig5iPpN__WvHa1W-1" vertex="1">
          <mxGeometry x="200" y="120" width="70" height="150" as="geometry" />
        </mxCell>
      </root>
    </mxGraphModel>
  </diagram>
  <diagram name="20240408" id="p3BIz-SYk3PkDnaxWt4h">
    <mxGraphModel dx="1674" dy="818" grid="1" gridSize="10" guides="1" tooltips="1" connect="1" arrows="1" fold="1" page="1" pageScale="1" pageWidth="827" pageHeight="1169" math="0" shadow="0">
      <root>
        <mxCell id="wXL6szIcjYbS21GgoOeU-0" />
        <mxCell id="wXL6szIcjYbS21GgoOeU-1" parent="wXL6szIcjYbS21GgoOeU-0" />
        <mxCell id="wXL6szIcjYbS21GgoOeU-2" value="火" style="text;html=1;strokeColor=none;fillColor=none;align=center;verticalAlign=middle;whiteSpace=wrap;rounded=0;shadow=0;" parent="wXL6szIcjYbS21GgoOeU-1" vertex="1">
          <mxGeometry x="99" y="75" width="60" height="30" as="geometry" />
        </mxCell>
        <mxCell id="wXL6szIcjYbS21GgoOeU-3" value="水" style="text;html=1;strokeColor=none;fillColor=none;align=center;verticalAlign=middle;whiteSpace=wrap;rounded=0;shadow=0;" parent="wXL6szIcjYbS21GgoOeU-1" vertex="1">
          <mxGeometry x="179" y="75" width="60" height="30" as="geometry" />
        </mxCell>
        <mxCell id="wXL6szIcjYbS21GgoOeU-4" value="木" style="text;html=1;strokeColor=none;fillColor=none;align=center;verticalAlign=middle;whiteSpace=wrap;rounded=0;shadow=0;" parent="wXL6szIcjYbS21GgoOeU-1" vertex="1">
          <mxGeometry x="259" y="75" width="60" height="30" as="geometry" />
        </mxCell>
        <mxCell id="wXL6szIcjYbS21GgoOeU-5" value="金" style="text;html=1;strokeColor=none;fillColor=none;align=center;verticalAlign=middle;whiteSpace=wrap;rounded=0;shadow=0;" parent="wXL6szIcjYbS21GgoOeU-1" vertex="1">
          <mxGeometry x="339" y="75" width="60" height="30" as="geometry" />
        </mxCell>
        <mxCell id="wXL6szIcjYbS21GgoOeU-6" value="土" style="text;html=1;strokeColor=none;fillColor=none;align=center;verticalAlign=middle;whiteSpace=wrap;rounded=0;shadow=0;" parent="wXL6szIcjYbS21GgoOeU-1" vertex="1">
          <mxGeometry x="419" y="75" width="60" height="30" as="geometry" />
        </mxCell>
        <mxCell id="wXL6szIcjYbS21GgoOeU-7" value="日" style="text;html=1;strokeColor=none;fillColor=none;align=center;verticalAlign=middle;whiteSpace=wrap;rounded=0;shadow=0;" parent="wXL6szIcjYbS21GgoOeU-1" vertex="1">
          <mxGeometry x="499" y="75" width="60" height="30" as="geometry" />
        </mxCell>
        <mxCell id="wXL6szIcjYbS21GgoOeU-8" value="月" style="text;html=1;strokeColor=none;fillColor=none;align=center;verticalAlign=middle;whiteSpace=wrap;rounded=0;shadow=0;" parent="wXL6szIcjYbS21GgoOeU-1" vertex="1">
          <mxGeometry x="19" y="75" width="60" height="30" as="geometry" />
        </mxCell>
        <mxCell id="wXL6szIcjYbS21GgoOeU-9" value="&lt;h1&gt;テーマ：ECS&lt;/h1&gt;" style="text;html=1;strokeColor=none;fillColor=none;spacing=5;spacingTop=-20;whiteSpace=wrap;overflow=hidden;rounded=0;shadow=0;" parent="wXL6szIcjYbS21GgoOeU-1" vertex="1">
          <mxGeometry x="40" y="40" width="480" height="40" as="geometry" />
        </mxCell>
        <mxCell id="wXL6szIcjYbS21GgoOeU-10" value="" style="endArrow=classic;html=1;rounded=0;shadow=0;" parent="wXL6szIcjYbS21GgoOeU-1" edge="1">
          <mxGeometry width="50" height="50" relative="1" as="geometry">
            <mxPoint x="41" y="110" as="sourcePoint" />
            <mxPoint x="600" y="110" as="targetPoint" />
          </mxGeometry>
        </mxCell>
        <mxCell id="wXL6szIcjYbS21GgoOeU-11" value="&lt;h1&gt;&lt;/h1&gt;&lt;h1 style=&quot;border-color: var(--border-color);&quot;&gt;今週の振り返り&lt;/h1&gt;【現状】&lt;span style=&quot;background-color: initial;&quot;&gt;&lt;br&gt;&lt;/span&gt;&lt;div&gt;&lt;br&gt;&lt;/div&gt;&lt;div&gt;&lt;br&gt;&lt;/div&gt;&lt;div&gt;&lt;br&gt;&lt;/div&gt;" style="text;html=1;strokeColor=none;fillColor=none;spacing=5;spacingTop=-20;whiteSpace=wrap;overflow=hidden;rounded=0;shadow=0;" parent="wXL6szIcjYbS21GgoOeU-1" vertex="1">
          <mxGeometry x="610" y="200" width="190" height="560" as="geometry" />
        </mxCell>
        <mxCell id="wXL6szIcjYbS21GgoOeU-12" value="&lt;h1&gt;&lt;/h1&gt;&lt;h1 style=&quot;border-color: var(--border-color);&quot;&gt;やることリスト&lt;/h1&gt;&lt;div&gt;・PSY&lt;/div&gt;" style="text;html=1;strokeColor=none;fillColor=none;spacing=5;spacingTop=-20;whiteSpace=wrap;overflow=hidden;rounded=0;shadow=0;" parent="wXL6szIcjYbS21GgoOeU-1" vertex="1">
          <mxGeometry x="610" y="40" width="190" height="160" as="geometry" />
        </mxCell>
        <mxCell id="lTylmVXml_elZgSXaM1U-0" value="ECS&#xa;Multi&#xa;Container" style="rounded=1;fillColor=#10739E;strokeColor=none;shadow=0;gradientColor=none;fontStyle=1;fontColor=#FFFFFF;fontSize=14;" parent="wXL6szIcjYbS21GgoOeU-1" vertex="1">
          <mxGeometry x="40" y="120" width="70" height="230" as="geometry" />
        </mxCell>
        <mxCell id="5L5VVnDSjrnYWJbW-Qli-0" value="Udemy&#xa;IAM&#xa;Role" style="rounded=1;fillColor=#F19C99;strokeColor=none;shadow=0;gradientColor=none;fontStyle=1;fontColor=#FFFFFF;fontSize=14;" parent="wXL6szIcjYbS21GgoOeU-1" vertex="1">
          <mxGeometry x="40" y="360" width="70" height="70" as="geometry" />
        </mxCell>
        <mxCell id="u1n59tSkkt7C1tiDi2h9-0" value="経歴&#xa;棚卸し" style="rounded=1;fillColor=#FF6666;strokeColor=none;shadow=0;gradientColor=none;fontStyle=1;fontColor=#FFFFFF;fontSize=14;" parent="wXL6szIcjYbS21GgoOeU-1" vertex="1">
          <mxGeometry x="40" y="440" width="70" height="70" as="geometry" />
        </mxCell>
        <mxCell id="ho6ucUJirXnD96r8xN8s-0" value="ECS&#xa;Multi&#xa;Container" style="rounded=1;fillColor=#10739E;strokeColor=none;shadow=0;gradientColor=none;fontStyle=1;fontColor=#FFFFFF;fontSize=14;" parent="wXL6szIcjYbS21GgoOeU-1" vertex="1">
          <mxGeometry x="120" y="120" width="70" height="230" as="geometry" />
        </mxCell>
        <mxCell id="ho6ucUJirXnD96r8xN8s-1" value="ECS&#xa;Multi&#xa;Container" style="rounded=1;fillColor=#10739E;strokeColor=none;shadow=0;gradientColor=none;fontStyle=1;fontColor=#FFFFFF;fontSize=14;" parent="wXL6szIcjYbS21GgoOeU-1" vertex="1">
          <mxGeometry x="120" y="360" width="70" height="150" as="geometry" />
        </mxCell>
        <mxCell id="5kN3AkUiwBBsKkb0xW4c-0" value="Docker&#xa;run&#xa;詳細" style="rounded=1;fillColor=#10739E;strokeColor=none;shadow=0;gradientColor=none;fontStyle=1;fontColor=#FFFFFF;fontSize=14;" parent="wXL6szIcjYbS21GgoOeU-1" vertex="1">
          <mxGeometry x="120" y="520" width="70" height="150" as="geometry" />
        </mxCell>
        <mxCell id="Z_D2oMBKYoj3VESSrwwW-0" value="Open&#xa;search&#xa;サポート&#xa;問い合わせ" style="rounded=1;fillColor=#10739E;strokeColor=none;shadow=0;gradientColor=none;fontStyle=1;fontColor=#FFFFFF;fontSize=14;" parent="wXL6szIcjYbS21GgoOeU-1" vertex="1">
          <mxGeometry x="200" y="120" width="70" height="70" as="geometry" />
        </mxCell>
        <mxCell id="Z_D2oMBKYoj3VESSrwwW-1" value="Open&#xa;search&#xa;類似検索&#xa;委託" style="rounded=1;fillColor=#10739E;strokeColor=none;shadow=0;gradientColor=none;fontStyle=1;fontColor=#FFFFFF;fontSize=14;" parent="wXL6szIcjYbS21GgoOeU-1" vertex="1">
          <mxGeometry x="200" y="200" width="70" height="70" as="geometry" />
        </mxCell>
        <mxCell id="_fTvh4rw_jm91-Ryxcga-0" value="Container&#xa;on&#xa;AWS" style="rounded=1;fillColor=#10739E;strokeColor=none;shadow=0;gradientColor=none;fontStyle=1;fontColor=#FFFFFF;fontSize=14;" parent="wXL6szIcjYbS21GgoOeU-1" vertex="1">
          <mxGeometry x="200" y="280" width="70" height="70" as="geometry" />
        </mxCell>
        <mxCell id="xF1yqqcfUZunAfply2b3-0" value="「ココナラ」&#xa;に登録する" style="rounded=1;fillColor=#333333;strokeColor=none;shadow=0;gradientColor=none;fontStyle=1;fontColor=#FFFFFF;fontSize=14;" parent="wXL6szIcjYbS21GgoOeU-1" vertex="1">
          <mxGeometry x="200" y="360" width="70" height="69" as="geometry" />
        </mxCell>
      </root>
    </mxGraphModel>
  </diagram>
  <diagram name="20240401" id="oLyfW8B5cQ7qM8Wx-LiT">
    <mxGraphModel dx="1674" dy="818" grid="1" gridSize="10" guides="1" tooltips="1" connect="1" arrows="1" fold="1" page="1" pageScale="1" pageWidth="827" pageHeight="1169" math="0" shadow="0">
      <root>
        <mxCell id="_V9W-r5Bzd1cfo6X25OV-0" />
        <mxCell id="_V9W-r5Bzd1cfo6X25OV-1" parent="_V9W-r5Bzd1cfo6X25OV-0" />
        <mxCell id="_V9W-r5Bzd1cfo6X25OV-2" value="火" style="text;html=1;strokeColor=none;fillColor=none;align=center;verticalAlign=middle;whiteSpace=wrap;rounded=0;shadow=0;" parent="_V9W-r5Bzd1cfo6X25OV-1" vertex="1">
          <mxGeometry x="99" y="75" width="60" height="30" as="geometry" />
        </mxCell>
        <mxCell id="_V9W-r5Bzd1cfo6X25OV-3" value="水" style="text;html=1;strokeColor=none;fillColor=none;align=center;verticalAlign=middle;whiteSpace=wrap;rounded=0;shadow=0;" parent="_V9W-r5Bzd1cfo6X25OV-1" vertex="1">
          <mxGeometry x="179" y="75" width="60" height="30" as="geometry" />
        </mxCell>
        <mxCell id="_V9W-r5Bzd1cfo6X25OV-4" value="木" style="text;html=1;strokeColor=none;fillColor=none;align=center;verticalAlign=middle;whiteSpace=wrap;rounded=0;shadow=0;" parent="_V9W-r5Bzd1cfo6X25OV-1" vertex="1">
          <mxGeometry x="259" y="75" width="60" height="30" as="geometry" />
        </mxCell>
        <mxCell id="_V9W-r5Bzd1cfo6X25OV-5" value="金" style="text;html=1;strokeColor=none;fillColor=none;align=center;verticalAlign=middle;whiteSpace=wrap;rounded=0;shadow=0;" parent="_V9W-r5Bzd1cfo6X25OV-1" vertex="1">
          <mxGeometry x="339" y="75" width="60" height="30" as="geometry" />
        </mxCell>
        <mxCell id="_V9W-r5Bzd1cfo6X25OV-6" value="土" style="text;html=1;strokeColor=none;fillColor=none;align=center;verticalAlign=middle;whiteSpace=wrap;rounded=0;shadow=0;" parent="_V9W-r5Bzd1cfo6X25OV-1" vertex="1">
          <mxGeometry x="419" y="75" width="60" height="30" as="geometry" />
        </mxCell>
        <mxCell id="_V9W-r5Bzd1cfo6X25OV-7" value="日" style="text;html=1;strokeColor=none;fillColor=none;align=center;verticalAlign=middle;whiteSpace=wrap;rounded=0;shadow=0;" parent="_V9W-r5Bzd1cfo6X25OV-1" vertex="1">
          <mxGeometry x="499" y="75" width="60" height="30" as="geometry" />
        </mxCell>
        <mxCell id="_V9W-r5Bzd1cfo6X25OV-8" value="月" style="text;html=1;strokeColor=none;fillColor=none;align=center;verticalAlign=middle;whiteSpace=wrap;rounded=0;shadow=0;" parent="_V9W-r5Bzd1cfo6X25OV-1" vertex="1">
          <mxGeometry x="19" y="75" width="60" height="30" as="geometry" />
        </mxCell>
        <mxCell id="_V9W-r5Bzd1cfo6X25OV-9" value="&lt;h1&gt;テーマ：Opensearch / ECS multi container&lt;/h1&gt;" style="text;html=1;strokeColor=none;fillColor=none;spacing=5;spacingTop=-20;whiteSpace=wrap;overflow=hidden;rounded=0;shadow=0;" parent="_V9W-r5Bzd1cfo6X25OV-1" vertex="1">
          <mxGeometry x="40" y="40" width="560" height="40" as="geometry" />
        </mxCell>
        <mxCell id="_V9W-r5Bzd1cfo6X25OV-10" value="" style="endArrow=classic;html=1;rounded=0;shadow=0;" parent="_V9W-r5Bzd1cfo6X25OV-1" edge="1">
          <mxGeometry width="50" height="50" relative="1" as="geometry">
            <mxPoint x="41" y="110" as="sourcePoint" />
            <mxPoint x="600" y="110" as="targetPoint" />
          </mxGeometry>
        </mxCell>
        <mxCell id="_V9W-r5Bzd1cfo6X25OV-11" value="&lt;h1&gt;&lt;/h1&gt;&lt;h1 style=&quot;border-color: var(--border-color);&quot;&gt;今週の振り返り&lt;/h1&gt;【現状】&lt;span style=&quot;background-color: initial;&quot;&gt;&lt;br&gt;&lt;/span&gt;&lt;div&gt;「みねぎしれい」=「Docker」という認識は会社内で完全に定着した。&lt;/div&gt;&lt;div&gt;しかし、それが完全には会社内での報酬に結び付いてはいない。&lt;/div&gt;&lt;div&gt;「技術は卓越している」と口では言うものの、「技術は」と言う空には他の評価基準（=年齢）が影響を与えている。&lt;/div&gt;&lt;div&gt;引き続きPHDおよび室には期待しない。&lt;/div&gt;&lt;div&gt;&lt;br&gt;&lt;/div&gt;&lt;div&gt;しかし、社内複業についても5月以降エントリーできそうなことはわかっている。&lt;/div&gt;&lt;div&gt;&lt;br&gt;&lt;/div&gt;" style="text;html=1;strokeColor=none;fillColor=none;spacing=5;spacingTop=-20;whiteSpace=wrap;overflow=hidden;rounded=0;shadow=0;" parent="_V9W-r5Bzd1cfo6X25OV-1" vertex="1">
          <mxGeometry x="610" y="200" width="190" height="560" as="geometry" />
        </mxCell>
        <mxCell id="_V9W-r5Bzd1cfo6X25OV-12" value="&lt;h1&gt;&lt;/h1&gt;&lt;h1 style=&quot;border-color: var(--border-color);&quot;&gt;やることリスト&lt;/h1&gt;&lt;div&gt;・PSY&lt;/div&gt;" style="text;html=1;strokeColor=none;fillColor=none;spacing=5;spacingTop=-20;whiteSpace=wrap;overflow=hidden;rounded=0;shadow=0;" parent="_V9W-r5Bzd1cfo6X25OV-1" vertex="1">
          <mxGeometry x="610" y="40" width="190" height="160" as="geometry" />
        </mxCell>
        <mxCell id="FPdsfyWkNoR8e5zxgBUJ-0" value="Open&#xa;Search&#xa;環境構築" style="rounded=1;fillColor=#10739E;strokeColor=none;shadow=0;gradientColor=none;fontStyle=1;fontColor=#FFFFFF;fontSize=14;" parent="_V9W-r5Bzd1cfo6X25OV-1" vertex="1">
          <mxGeometry x="40" y="120" width="70" height="190" as="geometry" />
        </mxCell>
        <mxCell id="uif6UFaGuqA1HUrgFxtS-0" value="Open&#xa;Search&#xa;類似検索" style="rounded=1;fillColor=#10739E;strokeColor=none;shadow=0;gradientColor=none;fontStyle=1;fontColor=#FFFFFF;fontSize=14;" parent="_V9W-r5Bzd1cfo6X25OV-1" vertex="1">
          <mxGeometry x="120" y="120" width="70" height="270" as="geometry" />
        </mxCell>
        <mxCell id="uif6UFaGuqA1HUrgFxtS-1" value="nginx&#xa;reverse&#xa;proxy&#xa;server" style="rounded=1;fillColor=#10739E;strokeColor=none;shadow=0;gradientColor=none;fontStyle=1;fontColor=#FFFFFF;fontSize=14;" parent="_V9W-r5Bzd1cfo6X25OV-1" vertex="1">
          <mxGeometry x="40" y="400" width="70" height="150" as="geometry" />
        </mxCell>
        <mxCell id="uif6UFaGuqA1HUrgFxtS-2" value="Open&#xa;Search&#xa;Django" style="rounded=1;fillColor=#10739E;strokeColor=none;shadow=0;gradientColor=none;fontStyle=1;fontColor=#FFFFFF;fontSize=14;" parent="_V9W-r5Bzd1cfo6X25OV-1" vertex="1">
          <mxGeometry x="40" y="320" width="70" height="70" as="geometry" />
        </mxCell>
        <mxCell id="rS-tFlE_2ZuYDEji1Cf8-0" value="Open&#xa;Search&#xa;類似検索" style="rounded=1;fillColor=#10739E;strokeColor=none;shadow=0;gradientColor=none;fontStyle=1;fontColor=#FFFFFF;fontSize=14;" parent="_V9W-r5Bzd1cfo6X25OV-1" vertex="1">
          <mxGeometry x="280" y="120" width="70" height="150" as="geometry" />
        </mxCell>
        <mxCell id="rS-tFlE_2ZuYDEji1Cf8-1" value="ECS&#xa;Multi&#xa;Container" style="rounded=1;fillColor=#10739E;strokeColor=none;shadow=0;gradientColor=none;fontStyle=1;fontColor=#FFFFFF;fontSize=14;" parent="_V9W-r5Bzd1cfo6X25OV-1" vertex="1">
          <mxGeometry x="360" y="120" width="70" height="310" as="geometry" />
        </mxCell>
        <mxCell id="rS-tFlE_2ZuYDEji1Cf8-2" value="ECS&#xa;Multi&#xa;Container" style="rounded=1;fillColor=#10739E;strokeColor=none;shadow=0;gradientColor=none;fontStyle=1;fontColor=#FFFFFF;fontSize=14;" parent="_V9W-r5Bzd1cfo6X25OV-1" vertex="1">
          <mxGeometry x="280" y="280" width="70" height="150" as="geometry" />
        </mxCell>
        <mxCell id="o8qrRh8hRXKdiwWElUfs-0" value="技量は卓越&#xa;している" style="rounded=1;fillColor=#10739E;strokeColor=none;shadow=0;gradientColor=none;fontStyle=1;fontColor=#FFFFFF;fontSize=14;" parent="_V9W-r5Bzd1cfo6X25OV-1" vertex="1">
          <mxGeometry x="360" y="440" width="70" height="150" as="geometry" />
        </mxCell>
      </root>
    </mxGraphModel>
  </diagram>
</mxfile>
